<svg width="300" height="300" viewBox="0 0 300 300" fill="none" xmlns="http://www.w3.org/2000/svg">
<path d="M46.2423 99.8701C63.5343 68.0341 107.034 30.8701 166.71 46.3501C226.386 61.8301 266.706 94.5781 260.1 151.554C253.494 208.53 218.778 255.87 144 257.256C69.2223 258.642 8.32225 169.68 46.2423 99.8701Z" fill="#59459C"/>
<path d="M263.466 142.926L224.545 148.951C223.059 149.181 222.04 150.573 222.27 152.06L225.94 175.765C226.17 177.252 227.562 178.271 229.049 178.04L267.969 172.015C269.456 171.785 270.474 170.393 270.244 168.907L266.575 145.201C266.344 143.714 264.953 142.696 263.466 142.926Z" stroke="#263238" stroke-width="0.6" stroke-linecap="round" stroke-linejoin="round"/>
<path d="M222.865 155.886L267.169 149.028" stroke="#263238" stroke-width="0.6" stroke-linecap="round" stroke-linejoin="round"/>
<path d="M263.705 156.805L256.548 157.913L258.143 168.218L265.3 167.11L263.705 156.805Z" stroke="#263238" stroke-width="0.6" stroke-linecap="round" stroke-linejoin="round"/>
<path d="M259.453 159.6C260.965 157.8 263.449 159 262.867 164.586L265.081 165.684L265.297 167.088L258.145 168.198L257.851 166.32L260.551 165.27C260.551 165.27 258.031 161.298 259.453 159.6Z" stroke="#263238" stroke-width="0.6" stroke-linecap="round" stroke-linejoin="round"/>
<path d="M243.931 172.2C243.931 172.2 249.103 172.242 247.621 171.21C246.139 170.178 245.917 169.134 247.177 169.116C248.437 169.098 250.549 171.516 250.381 170.04C250.213 168.564 251.125 169.524 251.299 169.62C251.473 169.716 252.967 169.116 253.039 169.29C253.111 169.464 253.009 169.95 257.875 169.2" stroke="#263238" stroke-width="0.6" stroke-linecap="round" stroke-linejoin="round"/>
<path d="M226.621 160.488L248.317 157.128" stroke="#263238" stroke-width="0.6" stroke-linecap="round" stroke-linejoin="round"/>
<path d="M227.005 162.948L239.785 160.968" stroke="#263238" stroke-width="0.6" stroke-linecap="round" stroke-linejoin="round"/>
<path d="M227.677 167.286L245.503 164.526" stroke="#263238" stroke-width="0.6" stroke-linecap="round" stroke-linejoin="round"/>
<path d="M233.208 151.062L254.964 147.69" stroke="#263238" stroke-width="0.6" stroke-linecap="round" stroke-linejoin="round"/>
<path d="M26.0107 135.864L74.6527 126.15L91.6387 207.702L39.9367 218.79L26.0107 135.864Z" stroke="#263238" stroke-width="0.6" stroke-linecap="round" stroke-linejoin="round"/>
<path d="M37.9814 207.156L89.5814 197.814" stroke="#263238" stroke-width="0.6" stroke-linecap="round" stroke-linejoin="round"/>
<path d="M83.4672 190.878L58.8252 195.426" stroke="#263238" stroke-width="0.6" stroke-linecap="round" stroke-linejoin="round"/>
<path d="M79.8133 186.786L72.6133 187.848" stroke="#263238" stroke-width="0.6" stroke-linecap="round" stroke-linejoin="round"/>
<path d="M80.9109 178.458L44.1309 185.358" stroke="#263238" stroke-width="0.6" stroke-linecap="round" stroke-linejoin="round"/>
<path d="M32.3711 173.748L82.7171 164.862" stroke="#263238" stroke-width="0.6" stroke-linecap="round" stroke-linejoin="round" stroke-dasharray="0.6 1.2"/>
<path d="M85.8672 205.062L55.2852 211.47" stroke="#263238" stroke-width="0.6" stroke-linecap="round" stroke-linejoin="round"/>
<path d="M84.9551 202.482L70.5791 205.062" stroke="#263238" stroke-width="0.6" stroke-linecap="round" stroke-linejoin="round"/>
<path d="M77.1789 159.486L51.9609 164.484" stroke="#263238" stroke-width="0.6" stroke-linecap="round" stroke-linejoin="round"/>
<path d="M75.1873 153.888L67.1533 155.466" stroke="#263238" stroke-width="0.6" stroke-linecap="round" stroke-linejoin="round"/>
<path d="M74.7134 150L37.9814 157.08" stroke="#263238" stroke-width="0.6" stroke-linecap="round" stroke-linejoin="round"/>
<path d="M71.376 131.076L61.458 133.128" stroke="#263238" stroke-width="0.6" stroke-linecap="round" stroke-linejoin="round"/>
<path d="M37.9808 138.125L29.4248 139.787" stroke="#263238" stroke-width="0.6" stroke-linecap="round" stroke-linejoin="round"/>
<path d="M32.5391 144.504C32.7175 143.895 33.024 143.332 33.4379 142.852C33.8518 142.372 34.3637 141.986 34.9391 141.72" stroke="#263238" stroke-width="0.6" stroke-linecap="round" stroke-linejoin="round"/>
<path d="M36.3424 150C35.28 149.874 34.2979 149.371 33.5746 148.583C32.8512 147.795 32.4346 146.773 32.4004 145.704" stroke="#263238" stroke-width="0.6" stroke-linecap="round" stroke-linejoin="round"/>
<path d="M39.679 148.979C39.0699 149.528 38.3119 149.883 37.501 149.999" stroke="#263238" stroke-width="0.6" stroke-linecap="round" stroke-linejoin="round"/>
<path d="M36.7627 141.312C37.5352 141.337 38.288 141.562 38.9478 141.965C39.6076 142.367 40.1519 142.934 40.5277 143.609C40.9035 144.285 41.0979 145.046 41.0922 145.819C41.0864 146.592 40.8805 147.35 40.4947 148.02" stroke="#263238" stroke-width="0.6" stroke-linecap="round" stroke-linejoin="round"/>
<path d="M45.5104 142.44C44.7124 142.188 43.9204 141.9 43.1104 141.72" stroke="#263238" stroke-width="0.6" stroke-linecap="round" stroke-linejoin="round"/>
<path d="M52.3142 143.016C51.6362 144.63 47.8442 143.16 46.7402 142.824" stroke="#263238" stroke-width="0.6" stroke-linecap="round" stroke-linejoin="round"/>
<path d="M45.8223 138.732L52.9143 140.4C52.8003 140.874 52.7103 141.354 52.6203 141.828" stroke="#263238" stroke-width="0.6" stroke-linecap="round" stroke-linejoin="round"/>
<path d="M42.3135 140.4C43.0695 138.6 42.7695 138 44.6535 138.438" stroke="#263238" stroke-width="0.6" stroke-linecap="round" stroke-linejoin="round"/>
<path d="M128.85 267.762L138.24 270.642L131.262 262.422C135.087 258.169 137.277 252.696 137.442 246.978" stroke="#263238" stroke-width="0.6" stroke-linecap="round" stroke-linejoin="round"/>
<path d="M117.455 271.386C120.602 270.382 123.573 268.889 126.257 266.964" stroke="#263238" stroke-width="0.6" stroke-linecap="round" stroke-linejoin="round"/>
<path d="M81.2217 253.926C83.9877 267.252 98.7117 275.46 114.114 272.268" stroke="#263238" stroke-width="0.6" stroke-linecap="round" stroke-linejoin="round"/>
<path d="M83.4658 238.902C82.8747 240.025 82.3731 241.193 81.9658 242.394" stroke="#263238" stroke-width="0.6" stroke-linecap="round" stroke-linejoin="round"/>
<path d="M136.992 242.358C134.232 229.032 119.502 220.824 104.106 224.022C97.1152 225.395 90.8145 229.145 86.2744 234.636" stroke="#263238" stroke-width="0.6" stroke-linecap="round" stroke-linejoin="round"/>
<path d="M120.654 237.474C116.22 232.644 110.178 235.992 107.664 240.894C103.512 237.294 96.6541 236.412 94.3381 242.55C90.4261 252.888 103.806 259.194 109.998 261.474C110.7 261.738 111.276 261.96 111.756 262.122C112.146 261.792 112.602 261.372 113.154 260.868C118.05 256.446 128.13 245.622 120.654 237.474Z" stroke="#263238" stroke-width="0.6" stroke-linecap="round" stroke-linejoin="round"/>
<path d="M157.524 40.7999L148.458 37.0259L154.608 45.8819C150.405 49.746 147.709 54.9763 147 60.6419" stroke="#263238" stroke-width="0.6" stroke-linecap="round" stroke-linejoin="round"/>
<path d="M169.2 38.2739C165.972 38.9737 162.873 40.1721 160.014 41.8259" stroke="#263238" stroke-width="0.6" stroke-linecap="round" stroke-linejoin="round"/>
<path d="M203.598 59.1418C202.128 45.5998 188.262 35.9998 172.626 37.7218" stroke="#263238" stroke-width="0.6" stroke-linecap="round" stroke-linejoin="round"/>
<path d="M199.92 73.8778C200.606 72.8164 201.208 71.703 201.72 70.5479" stroke="#263238" stroke-width="0.6" stroke-linecap="round" stroke-linejoin="round"/>
<path d="M147 65.2861C148.47 78.8161 162.336 88.4041 177.972 86.7061C185.062 86.0096 191.692 82.8829 196.74 77.8561" stroke="#263238" stroke-width="0.6" stroke-linecap="round" stroke-linejoin="round"/>
<path d="M181.875 73.5662C188.808 69.8551 191.42 61.2267 187.709 54.294C183.998 47.3614 175.369 44.7497 168.436 48.4608C161.504 52.1718 158.892 60.8002 162.603 67.7329C166.314 74.6655 174.943 77.2772 181.875 73.5662Z" stroke="#263238" stroke-width="0.6" stroke-linecap="round" stroke-linejoin="round"/>
<path d="M169.746 62.8141L174.006 66.8341L181.11 54.6001" stroke="#263238" stroke-width="0.6" stroke-linecap="round" stroke-linejoin="round"/>
<path opacity="0.2" d="M192.954 196.626C192.954 196.626 190.818 222.474 193.908 228.744C196.998 235.014 198.546 277.854 197.16 283.242C197.16 283.242 207.108 285.75 211.044 282.186C214.98 278.622 221.034 282.054 231.006 278.586C240.978 275.118 233.784 198.144 233.784 198.144L234.09 170.142L217.644 155.49L192.954 196.626Z" fill="black" fill-opacity="0.7"/>
<path d="M206.213 209.058C206.151 209.243 206.051 209.412 205.919 209.556C203.795 211.566 194.729 213.798 186.941 215.406C180.491 216.744 174.941 217.65 174.941 217.65C174.941 217.65 170.669 182.148 170.669 178.416C170.669 174.684 163.781 114.264 163.781 114.264L180.293 113.55L202.199 112.602C202.199 112.602 202.331 114.216 202.553 117.036C203.999 135 208.967 201.972 206.213 209.058Z" fill="#F5BE30"/>
<mask id="mask0_459_9618" style="mask-type:luminance" maskUnits="userSpaceOnUse" x="163" y="112" width="45" height="106">
<path d="M206.213 209.058C206.151 209.243 206.051 209.412 205.919 209.556C203.795 211.566 194.729 213.798 186.941 215.406C180.491 216.744 174.941 217.65 174.941 217.65C174.941 217.65 170.669 182.148 170.669 178.416C170.669 174.684 163.781 114.264 163.781 114.264L180.293 113.55L202.199 112.602C202.199 112.602 202.331 114.216 202.553 117.036C203.999 135 208.967 201.972 206.213 209.058Z" fill="white"/>
</mask>
<g mask="url(#mask0_459_9618)">
<path opacity="0.2" d="M206.215 209.058L186.943 213L179.665 214.494C177.691 212.556 176.185 212.52 176.185 212.52L175.585 207.09L174.643 198.204L166.351 120.024C168.151 118.782 169.039 116.064 169.039 116.064L180.139 115.662L199.369 114.96L202.543 117.012C204.001 135 208.969 201.972 206.215 209.058Z" fill="black" fill-opacity="0.7"/>
<path d="M206.215 209.058L186.943 213L179.665 214.494C177.691 212.556 176.185 212.52 176.185 212.52L175.585 207.09L174.643 198.204L166.351 120.024C168.151 118.782 169.039 116.064 169.039 116.064L180.139 115.662L199.369 114.96L202.543 117.012C204.001 135 208.969 201.972 206.215 209.058Z" stroke="#263238" stroke-width="0.6" stroke-linecap="round" stroke-linejoin="round"/>
<path d="M177.204 186.042L183.636 186.03L183.642 188.04L181.854 188.676L177.732 189.126L177.204 186.042Z" fill="#F5BE30" stroke="#263238" stroke-width="0.6" stroke-linecap="round" stroke-linejoin="round"/>
<path d="M177.601 190.182L182.329 190.02L183.541 190.596L183.481 193.266L177.961 193.326L177.601 190.182Z" fill="#F5BE30" stroke="#263238" stroke-width="0.6" stroke-linecap="round" stroke-linejoin="round"/>
<path d="M178.356 194.448L183.756 194.058L183.696 196.08L181.086 197.004L178.326 196.848L178.356 194.448Z" fill="#F5BE30" stroke="#263238" stroke-width="0.6" stroke-linecap="round" stroke-linejoin="round"/>
<path d="M178.68 197.856L183.042 198.078L183.438 199.194L182.802 200.424L178.902 200.676L178.23 198.774L178.68 197.856Z" fill="#F5BE30" stroke="#263238" stroke-width="0.6" stroke-linecap="round" stroke-linejoin="round"/>
<path d="M183.709 201.762L184.309 203.508C184.405 203.694 184.455 203.899 184.455 204.108C184.455 204.317 184.405 204.523 184.309 204.708C184.198 204.836 184.055 204.933 183.895 204.989C183.736 205.046 183.564 205.061 183.397 205.032C183.061 205.002 182.731 204.888 182.395 204.87C181.381 204.828 180.451 205.662 179.455 205.47C179.065 204.39 178.081 202.806 179.413 202.32C179.659 202.242 183.853 202.158 183.709 201.762Z" fill="#F5BE30" stroke="#263238" stroke-width="0.6" stroke-linecap="round" stroke-linejoin="round"/>
<path d="M183.691 206.676C183.786 207.091 183.854 207.512 183.895 207.936C183.956 208.204 183.947 208.484 183.869 208.747C183.791 209.011 183.647 209.25 183.451 209.442C183.195 209.583 182.909 209.659 182.617 209.664L179.149 209.976C179.098 209.322 179.088 208.664 179.119 208.008C179.323 207.228 179.179 207.294 179.917 206.976C181.087 206.478 182.491 207.27 183.691 206.676Z" fill="#F5BE30" stroke="#263238" stroke-width="0.6" stroke-linecap="round" stroke-linejoin="round"/>
<path d="M171.078 121.8C171.078 121.8 172.386 134.442 172.446 136.944" stroke="#263238" stroke-width="0.6" stroke-linecap="round" stroke-linejoin="round"/>
<path d="M173.898 121.938L174.51 128.904" stroke="#263238" stroke-width="0.6" stroke-linecap="round" stroke-linejoin="round"/>
<path d="M183.673 119.304L184.465 127.47L185.575 127.578L185.215 119.382L183.673 119.304Z" fill="#F5BE30" stroke="#263238" stroke-width="0.6" stroke-linecap="round" stroke-linejoin="round"/>
<path opacity="0.2" d="M206.214 209.058C206.152 209.243 206.052 209.412 205.92 209.556C203.796 211.566 194.73 213.798 186.942 215.406V210.006L175.608 207.102L173.898 206.664L174.666 198.216L177.6 165.936L180.162 115.686L180.27 113.55L202.2 112.602C202.2 112.602 202.332 114.216 202.554 117.036C204 135 208.968 201.972 206.214 209.058Z" fill="black" fill-opacity="0.7"/>
</g>
<path d="M206.213 209.058C206.151 209.243 206.051 209.412 205.919 209.556C203.795 211.566 194.729 213.798 186.941 215.406C180.491 216.744 174.941 217.65 174.941 217.65C174.941 217.65 170.669 182.148 170.669 178.416C170.669 174.684 163.781 114.264 163.781 114.264L180.293 113.55L202.199 112.602C202.199 112.602 202.331 114.216 202.553 117.036C203.999 135 208.967 201.972 206.213 209.058Z" stroke="#263238" stroke-width="0.6" stroke-linecap="round" stroke-linejoin="round"/>
<path d="M217.835 289.62C217.973 288.354 215.981 270.192 215.945 268.218C215.849 262.818 214.319 255.732 214.319 255.732C212.183 250.272 210.521 237.69 204.821 229.62C199.121 221.55 199.127 212.058 198.179 204C197.231 195.942 197.465 196.638 197.705 189.486C197.878 184.113 197.64 178.736 196.991 173.4C196.517 168.648 195.569 160.29 196.991 156.396C198.413 152.502 202.133 151.596 206.207 155.496C210.281 159.396 211.943 175.386 211.943 177.36C211.943 179.334 211.943 185.502 213.371 187.878C213.371 187.878 221.441 183.75 221.441 182.61C221.441 181.47 221.201 171.396 222.389 170.856L217.643 155.496L226.643 152.298C228.337 153.817 229.801 155.576 230.987 157.518C232.003 159.126 232.853 160.833 233.525 162.612C237.323 172.686 243.425 179.712 244.685 182.61C245.945 185.508 244.685 208.524 244.685 212.802C244.685 217.08 241.925 236.802 241.997 240.12C242.051 242.52 243.671 251.448 245.285 258.294C245.885 260.934 249.527 280.062 250.085 281.58L217.835 289.62Z" fill="white"/>
<path opacity="0.4" d="M224.939 169.842C224.879 171.132 226.421 181.416 226.421 181.416C227.489 183.978 221.657 192.714 221.657 192.714C220.397 193.422 219.857 197.814 219.857 197.814C215.909 196.938 206.867 187.848 206.867 187.848C206.867 187.848 205.799 191.574 204.599 200.796C203.399 210.018 211.007 231.924 214.247 247.05C217.487 262.176 215.945 268.2 215.945 268.2C215.849 262.8 214.319 255.714 214.319 255.714C212.183 250.254 210.521 237.672 204.821 229.602C199.121 221.532 199.127 212.058 198.179 204C197.231 195.942 197.465 196.638 197.705 189.486C197.878 184.113 197.64 178.736 196.991 173.4C196.517 168.648 195.569 160.29 196.991 156.396C198.413 152.502 202.133 151.596 206.207 155.496C210.281 159.396 211.943 175.386 211.943 177.36C211.943 179.334 211.943 185.502 213.371 187.878C213.371 187.878 221.441 183.75 221.441 182.61C221.441 181.47 221.201 171.396 222.389 170.856L217.643 155.496L226.643 152.298C228.337 153.817 229.801 155.576 230.987 157.518C228.077 163.338 224.999 169.038 224.939 169.842Z" fill="#F5BE30"/>
<path opacity="0.4" d="M240.072 241.71C240.468 238.11 241.65 229.554 242.4 224.214C241.482 228.384 240 230.496 240 230.496C240 230.496 242.556 199.896 242.808 198.03C243.06 196.164 245.64 187.776 244.692 182.58C245.952 185.472 244.692 208.494 244.692 212.772C244.692 217.05 241.932 236.772 242.004 240.09C242.058 242.49 244.632 257.784 246.246 264.63C242.778 259.59 239.676 245.328 240.072 241.71Z" fill="#F5BE30"/>
<path d="M250.073 281.55C248.177 276.09 242.087 243.39 242.015 240.09C241.943 236.79 244.703 217.044 244.703 212.772C244.703 208.5 245.963 185.472 244.703 182.58C243.443 179.688 237.341 172.656 233.543 162.582C232.108 158.643 229.747 155.106 226.661 152.268L217.661 155.466L222.407 170.826C221.207 171.366 221.459 181.44 221.459 182.58C221.459 183.72 213.389 187.848 213.389 187.848C211.961 185.448 211.961 179.304 211.961 177.33C211.961 175.356 210.299 159.36 206.225 155.466C202.151 151.572 198.425 152.466 197.009 156.366C195.593 160.266 196.535 168.618 197.009 173.37C197.659 178.712 197.897 184.096 197.723 189.474C197.483 196.626 197.243 195.918 198.197 203.988C199.151 212.058 199.145 221.55 204.839 229.62C210.533 237.69 212.201 250.272 214.337 255.732C214.337 255.732 218.369 284.874 217.853 289.62" stroke="#263238" stroke-width="0.6" stroke-linecap="round" stroke-linejoin="round"/>
<path d="M213.372 187.848C213.372 187.848 214.794 194.49 217.998 197.814" stroke="#263238" stroke-width="0.6" stroke-linecap="round" stroke-linejoin="round"/>
<path d="M214.236 190.878C214.236 190.878 220.236 192.714 222.744 192.828" stroke="#263238" stroke-width="0.6" stroke-linecap="round" stroke-linejoin="round"/>
<path d="M221.441 182.58C221.441 182.58 225.713 180.606 228.443 181.794" stroke="#263238" stroke-width="0.6" stroke-linecap="round" stroke-linejoin="round"/>
<path d="M222.389 170.826C222.389 170.826 225.713 170.52 226.421 168.858" stroke="#263238" stroke-width="0.6" stroke-linecap="round" stroke-linejoin="round"/>
<path d="M205.92 231.312C205.92 231.312 212.304 239.238 214.2 243.27" stroke="#263238" stroke-width="0.6" stroke-linecap="round" stroke-linejoin="round"/>
<path d="M243.042 196.626C241.974 202.92 240.546 220.128 240.072 223.212" stroke="#263238" stroke-width="0.6" stroke-linecap="round" stroke-linejoin="round"/>
<path d="M245.081 184.758C245.261 190.458 243.881 193.422 243.881 193.422" stroke="#263238" stroke-width="0.6" stroke-linecap="round" stroke-linejoin="round"/>
<path d="M196.007 105L239.999 116.604C239.999 116.604 224.537 163.53 221.399 169.35L216.155 210.258C216.155 210.258 188.051 209.022 175.127 205.116C175.127 205.116 183.299 162.516 183.737 156.834C184.175 151.152 196.007 105 196.007 105Z" fill="#F5BE30"/>
<mask id="mask1_459_9618" style="mask-type:luminance" maskUnits="userSpaceOnUse" x="175" y="105" width="65" height="106">
<path d="M196.008 105L240 116.604C240 116.604 224.538 163.53 221.4 169.35L216.156 210.258C216.156 210.258 188.052 209.022 175.128 205.116C175.128 205.116 183.3 162.516 183.738 156.834C184.176 151.152 196.008 105 196.008 105Z" fill="white"/>
</mask>
<g mask="url(#mask1_459_9618)">
<path opacity="0.2" d="M186.546 154.314L196.242 112.86C196.242 112.86 200.412 110.79 202.026 108.9L233.544 117.864C233.544 117.864 233.64 120.954 235.446 122.934L219.54 168.768L215.682 202.554C215.682 202.554 210.552 202.962 210.06 206.754C210.06 206.754 193.428 207.654 182.274 204.714C182.274 204.714 180.96 200.616 178.95 198.024L186.546 154.314Z" fill="black" fill-opacity="0.7"/>
<path d="M186.546 154.314L196.242 112.86C196.242 112.86 200.412 110.79 202.026 108.9L233.544 117.864C233.544 117.864 233.64 120.954 235.446 122.934L219.54 168.768L215.682 202.554C215.682 202.554 210.552 202.962 210.06 206.754C210.06 206.754 193.428 207.654 182.274 204.714C182.274 204.714 180.96 200.616 178.95 198.024L186.546 154.314Z" stroke="#263238" stroke-width="0.6" stroke-linecap="round" stroke-linejoin="round"/>
<path d="M194.616 156.468C194.616 156.468 197.478 145.668 207.558 147.606C217.638 149.544 211.944 162.852 211.944 162.852C211.944 162.852 212.004 173.592 203.826 172.11C196.734 170.826 192.954 166.932 194.616 156.468Z" fill="#F5BE30" stroke="#263238" stroke-width="0.6" stroke-linecap="round" stroke-linejoin="round"/>
<path d="M200.076 116.802C200.076 116.802 197.028 129.144 196.242 131.52" stroke="#263238" stroke-width="0.6" stroke-linecap="round" stroke-linejoin="round"/>
<path d="M202.685 117.87L200.909 124.638" stroke="#263238" stroke-width="0.6" stroke-linecap="round" stroke-linejoin="round"/>
<path d="M224.94 122.616L231.006 124.752L230.34 126.654H228.444L224.406 125.706L224.94 122.616Z" fill="#F5BE30" stroke="#263238" stroke-width="0.6" stroke-linecap="round" stroke-linejoin="round"/>
<path d="M223.932 126.654L228.444 128.076L229.392 129.024L228.444 131.52L223.218 129.738L223.932 126.654Z" fill="#F5BE30" stroke="#263238" stroke-width="0.6" stroke-linecap="round" stroke-linejoin="round"/>
<path d="M223.219 130.926L228.445 132.366L227.707 134.25H224.941L222.391 133.182L223.219 130.926Z" fill="#F5BE30" stroke="#263238" stroke-width="0.6" stroke-linecap="round" stroke-linejoin="round"/>
<path d="M222.39 134.25L226.422 135.912V137.094L225.414 138.048L221.658 136.98V134.958L222.39 134.25Z" fill="#F5BE30" stroke="#263238" stroke-width="0.6" stroke-linecap="round" stroke-linejoin="round"/>
<path d="M225.829 139.608V141.456C225.86 141.659 225.843 141.867 225.779 142.063C225.716 142.259 225.607 142.438 225.463 142.584C225.313 142.665 225.146 142.708 224.977 142.708C224.807 142.708 224.64 142.665 224.491 142.584C224.185 142.44 223.891 142.224 223.603 142.098C222.661 141.72 221.503 142.194 220.603 141.69C220.603 140.544 220.201 138.726 221.617 138.69C221.851 138.708 225.829 140.028 225.829 139.608Z" fill="#F5BE30" stroke="#263238" stroke-width="0.6" stroke-linecap="round" stroke-linejoin="round"/>
<path d="M224.166 144.234C224.121 144.657 224.045 145.076 223.938 145.488C223.806 146.022 223.548 146.616 223.014 146.76C222.727 146.808 222.432 146.783 222.156 146.688L218.784 145.8C218.947 145.169 219.148 144.548 219.384 143.94C219.84 143.274 219.684 143.286 220.482 143.232C221.778 143.178 222.834 144.396 224.166 144.234Z" fill="#F5BE30" stroke="#263238" stroke-width="0.6" stroke-linecap="round" stroke-linejoin="round"/>
<path d="M212.779 118.704L210.757 126.654L211.765 127.128L214.201 119.292L212.779 118.704Z" fill="#F5BE30" stroke="#263238" stroke-width="0.6" stroke-linecap="round" stroke-linejoin="round"/>
<path d="M187.441 172.092L193.669 173.706L193.165 175.65L191.275 175.818L187.171 175.212L187.441 172.092Z" fill="#F5BE30" stroke="#263238" stroke-width="0.6" stroke-linecap="round" stroke-linejoin="round"/>
<path d="M186.78 176.202L191.394 177.234L192.426 178.098L191.694 180.666L186.336 179.334L186.78 176.202Z" fill="#F5BE30" stroke="#263238" stroke-width="0.6" stroke-linecap="round" stroke-linejoin="round"/>
<path d="M186.439 180.522L191.767 181.506L191.191 183.444L188.437 183.684L185.803 182.838L186.439 180.522Z" fill="#F5BE30" stroke="#263238" stroke-width="0.6" stroke-linecap="round" stroke-linejoin="round"/>
<path d="M185.892 183.9L190.056 185.214L190.158 186.396L189.234 187.428L185.4 186.684L185.226 184.674L185.892 183.9Z" fill="#F5BE30" stroke="#263238" stroke-width="0.6" stroke-linecap="round" stroke-linejoin="round"/>
<path d="M189.775 188.946L189.937 190.788C189.986 190.989 189.987 191.198 189.94 191.4C189.893 191.601 189.8 191.788 189.667 191.946C189.526 192.04 189.363 192.096 189.194 192.11C189.025 192.123 188.855 192.094 188.701 192.024C188.383 191.91 188.101 191.718 187.771 191.622C186.805 191.322 185.689 191.892 184.771 191.466C184.663 190.326 184.117 188.55 185.521 188.412C185.737 188.4 189.811 189.366 189.775 188.946Z" fill="#F5BE30" stroke="#263238" stroke-width="0.6" stroke-linecap="round" stroke-linejoin="round"/>
<path d="M188.52 193.698C188.511 194.134 188.471 194.569 188.4 195C188.31 195.54 188.106 196.158 187.59 196.344C187.306 196.416 187.009 196.416 186.726 196.344L183.294 195.744C183.409 195.099 183.564 194.462 183.756 193.836C184.152 193.134 183.996 193.158 184.788 193.038C186.048 192.852 187.2 193.974 188.52 193.698Z" fill="#F5BE30" stroke="#263238" stroke-width="0.6" stroke-linecap="round" stroke-linejoin="round"/>
<path d="M213.372 199.524C213.372 199.524 214.8 183.6 214.8 181.998" stroke="#263238" stroke-width="0.6" stroke-linecap="round" stroke-linejoin="round"/>
<path d="M210.522 198.81C210.522 198.81 211.122 190.53 211.23 189.09" stroke="#263238" stroke-width="0.6" stroke-linecap="round" stroke-linejoin="round"/>
<path d="M199.393 192.828L197.467 202.254H199.393L200.791 192.828H199.393Z" fill="#F5BE30" stroke="#263238" stroke-width="0.6" stroke-linecap="round" stroke-linejoin="round"/>
<path opacity="0.2" d="M221.502 169.116C217.338 168.246 213.624 166.968 210.876 165.126C210.876 165.126 212.868 170.85 219.93 180.606L216.132 210.258C216.132 210.258 197.79 209.454 183.93 207.084C188.19 195.084 195.93 172.344 195.012 167.838C193.77 161.652 198.156 154.35 198.156 154.35C212.022 151.854 225.468 141.372 234.696 132.51C229.998 146.4 223.584 165 221.502 169.116Z" fill="black" fill-opacity="0.7"/>
</g>
<path d="M196.007 105L239.999 116.604C239.999 116.604 224.537 163.53 221.399 169.35L216.155 210.258C216.155 210.258 188.051 209.022 175.127 205.116C175.127 205.116 183.299 162.516 183.737 156.834C184.175 151.152 196.007 105 196.007 105Z" stroke="#263238" stroke-width="0.6" stroke-linecap="round" stroke-linejoin="round"/>
<path d="M220.397 198.414L214.199 243.27C212.819 240.336 209.057 235.332 207.113 232.83C206.393 231.894 205.913 231.312 205.913 231.312L204.815 229.62C199.121 221.55 199.121 212.058 198.173 203.988C197.225 195.918 197.459 196.626 197.699 189.474C197.874 184.106 197.637 178.732 196.991 173.4C196.517 168.648 195.569 160.29 196.991 156.396C197.687 154.488 198.941 153.3 200.513 153.048C202.085 152.796 204.113 153.516 206.207 155.496C210.281 159.39 211.943 175.386 211.943 177.36C211.943 179.334 211.943 185.502 213.371 187.878C213.371 187.848 217.199 195.09 220.397 198.414Z" fill="white"/>
<path opacity="0.4" d="M204.347 226.422C205.643 228.078 206.525 230.466 207.113 232.83C206.393 231.894 205.913 231.312 205.913 231.312L204.815 229.62C199.121 221.55 199.121 212.058 198.173 203.988C197.225 195.918 197.459 196.626 197.699 189.474C197.874 184.106 197.637 178.732 196.991 173.4C196.517 168.648 195.569 160.29 196.991 156.396C197.687 154.488 198.941 153.3 200.513 153.048C203.513 153.9 206.513 156.954 207.557 162.18C209.357 170.952 201.239 163.866 199.361 171.3C197.483 178.734 200.213 180.738 201.335 182.61C202.457 184.482 201.023 188.61 199.361 194.154C197.699 199.698 200.789 221.868 204.347 226.422Z" fill="#F5BE30"/>
<path d="M220.398 198.414C217.194 195.09 213.372 187.848 213.372 187.848C211.944 185.448 211.944 179.304 211.944 177.33C211.944 175.356 210.282 159.36 206.208 155.466C202.134 151.572 198.408 152.466 196.992 156.366C195.576 160.266 196.518 168.618 196.992 173.37C197.641 178.712 197.88 184.095 197.706 189.474C197.466 196.626 197.226 195.918 198.18 203.988C199.134 212.058 199.128 221.55 204.822 229.62L205.92 231.312C205.92 231.312 212.304 239.238 214.2 243.27" stroke="#263238" stroke-width="0.6" stroke-linecap="round" stroke-linejoin="round"/>
<path d="M199.392 179.43C199.392 179.43 204.834 176.616 207.558 176.856" stroke="#263238" stroke-width="0.6" stroke-linecap="round" stroke-linejoin="round"/>
<path opacity="0.2" d="M116.286 102.486C116.286 102.486 102.522 87.3297 101.574 86.3997C100.626 85.4697 99.9115 69.3057 97.2955 62.1897C94.6795 55.0737 93.4135 13.2897 93.4135 13.2897C93.4135 13.2897 90.9235 10.2057 83.9035 11.8677C76.8835 13.5297 70.0015 10.4397 62.1715 14.9517C54.3415 19.4637 69.5275 83.9997 69.5275 83.9997L84.9415 133.122L116.286 102.486Z" fill="black" fill-opacity="0.7"/>
<path d="M125.741 102.6C125.741 102.6 119.573 142.002 113.141 147.222C109.427 150.222 103.637 151.602 98.5014 151.422C94.7814 151.29 91.3974 150.354 89.4054 148.656C84.6594 144.618 78.0054 142.482 74.6934 139.872C71.3814 137.262 71.3694 128.004 69.2334 120.168C67.0974 112.332 64.0074 112.098 63.2994 104.268C62.5914 96.438 59.7354 72.468 54.5754 65.814C49.4154 59.16 49.2954 53.946 47.1594 47.178C45.0234 40.41 29.3994 15.924 29.3994 15.924L67.4874 8.12402C67.4874 8.12402 71.2314 23.622 75.2394 36.264C77.1414 42.264 79.1034 47.628 80.7474 50.376C83.9042 55.6914 86.6386 61.2465 88.9254 66.99C93.2334 71.502 95.5914 81.498 96.3054 90.252L106.505 95.94C114.347 98.082 125.741 102.6 125.741 102.6Z" fill="white"/>
<path opacity="0.4" d="M125.741 102.6C125.741 102.6 119.573 142.002 113.141 147.222C109.427 150.222 103.637 151.602 98.5012 151.422C86.3212 148.422 83.0452 141.63 81.3952 139.986C79.1992 137.796 76.3132 124.452 77.8972 116.688C79.4812 108.924 78.3412 106.05 77.0332 102.258C74.1352 93.8579 82.9732 89.3339 83.8852 86.1539C84.7972 82.9739 84.4852 65.1899 80.5072 59.4059C78.3952 56.3279 72.9532 40.4639 75.2452 36.2759C77.1472 42.2759 79.1092 47.6399 80.7532 50.3879C83.9099 55.7032 86.6443 61.2583 88.9312 67.0019C93.2392 71.5139 95.5972 81.5099 96.3112 90.2639L106.511 95.9519C114.347 98.0819 125.741 102.6 125.741 102.6Z" fill="#59459C"/>
<path d="M79.2296 99.8276C79.2296 99.8276 77.0815 102.354 75.1855 102.354" stroke="#263238" stroke-width="0.6" stroke-linecap="round" stroke-linejoin="round"/>
<path d="M83.9033 108.366C83.9033 108.366 81.5933 113.274 77.9033 114.366" stroke="#263238" stroke-width="0.6" stroke-linecap="round" stroke-linejoin="round"/>
<path d="M79.7998 137.13C79.7998 137.13 85.0258 134.874 85.8538 131.076" stroke="#263238" stroke-width="0.6" stroke-linecap="round" stroke-linejoin="round"/>
<path d="M106.517 95.9463C106.517 95.9463 105.209 97.6083 105.209 98.9463" stroke="#263238" stroke-width="0.6" stroke-linecap="round" stroke-linejoin="round"/>
<path d="M67.5114 8.12402C67.5114 8.12402 75.6594 41.826 80.7714 50.4C83.9282 55.7154 86.6626 61.2705 88.9494 67.014C93.2574 71.526 95.6154 81.528 96.3294 90.282L106.529 95.97C114.359 98.106 125.729 102.618 125.729 102.618C125.729 102.618 119.561 142.02 113.129 147.24C106.697 152.46 94.1994 152.676 89.3994 148.644C84.5994 144.612 77.9994 142.47 74.6874 139.86C71.3754 137.25 71.3634 127.992 69.2274 120.156C67.0914 112.32 64.0014 112.086 63.2934 104.256C62.5854 96.426 59.7294 72.456 54.5694 65.802C49.4094 59.148 49.2894 53.934 47.1534 47.166C45.0174 40.398 29.3994 15.924 29.3994 15.924" stroke="#263238" stroke-width="0.6" stroke-linecap="round" stroke-linejoin="round"/>
<path d="M140.172 100.044L77.1777 197.01L92.0457 198.666L137.22 200.544L141.846 114.294L140.172 100.044Z" fill="#263238" stroke="#263238" stroke-width="0.6" stroke-linecap="round" stroke-linejoin="round"/>
<path d="M140.172 100.038L134.352 198.888L77.1777 197.01L81.6897 121.266L83.0937 97.7456L108.006 98.7476L140.172 100.038Z" fill="#757575"/>
<mask id="mask2_459_9618" style="mask-type:luminance" maskUnits="userSpaceOnUse" x="77" y="97" width="64" height="102">
<path d="M140.173 100.038L134.353 198.888L77.1787 197.01L81.6907 121.266L83.0947 97.7461L108.007 98.7481L140.173 100.038Z" fill="white"/>
</mask>
<g mask="url(#mask2_459_9618)">
<path d="M125.796 187.506C129.64 187.506 132.756 184.39 132.756 180.546C132.756 176.702 129.64 173.586 125.796 173.586C121.952 173.586 118.836 176.702 118.836 180.546C118.836 184.39 121.952 187.506 125.796 187.506Z" fill="#BFBFBF" stroke="#263238" stroke-width="0.6" stroke-miterlimit="10"/>
<path d="M123.834 175.926L128.55 176.544" stroke="#263238" stroke-width="0.6" stroke-linecap="round" stroke-linejoin="round"/>
<path d="M122.568 177.072L129.654 177.762" stroke="#263238" stroke-width="0.6" stroke-linecap="round" stroke-linejoin="round"/>
<path d="M121.782 184.056L128.874 184.746" stroke="#263238" stroke-width="0.6" stroke-linecap="round" stroke-linejoin="round"/>
<path d="M124.884 178.65C125.079 178.699 125.285 178.67 125.459 178.571C125.633 178.471 125.763 178.309 125.82 178.116L126.348 178.17L125.814 183.18L125.028 183.096L125.436 179.274L124.836 179.208L124.884 178.65Z" fill="#263238"/>
<path d="M127.507 178.86C127.819 178.86 127.963 179.094 127.927 179.424V179.484L127.621 179.454V179.4C127.621 179.256 127.585 179.19 127.483 179.178C127.381 179.166 127.315 179.22 127.303 179.364C127.291 179.508 127.339 179.634 127.531 179.838C127.628 179.92 127.705 180.025 127.754 180.143C127.803 180.261 127.823 180.389 127.813 180.516C127.777 180.846 127.597 181.014 127.279 180.978C126.961 180.942 126.823 180.738 126.853 180.414V180.288L127.153 180.318V180.468C127.153 180.612 127.195 180.672 127.297 180.684C127.399 180.696 127.471 180.648 127.483 180.504C127.495 180.36 127.447 180.234 127.255 180.03C127.157 179.947 127.081 179.843 127.032 179.725C126.983 179.607 126.962 179.479 126.973 179.352C127.015 178.992 127.201 178.8 127.507 178.86Z" fill="#263238"/>
<path d="M128.07 178.944L129.066 179.046L129.03 179.34L128.694 179.304L128.508 181.056L128.19 181.026L128.376 179.268L128.04 179.232L128.07 178.944Z" fill="#263238"/>
<path d="M111.204 104.426L100.042 101.99C99.7541 101.927 99.4695 102.11 99.4067 102.398L97.8882 109.356C97.8254 109.645 98.008 109.929 98.2961 109.992L109.457 112.428C109.746 112.49 110.03 112.308 110.093 112.02L111.611 105.061C111.674 104.773 111.492 104.489 111.204 104.426Z" fill="white" stroke="#263238" stroke-width="0.6" stroke-linecap="round" stroke-linejoin="round"/>
<path d="M102 108.852L101.958 108.81C101.958 108.81 101.958 108.738 101.928 108.708C101.899 108.681 101.877 108.648 101.862 108.612C101.859 108.6 101.859 108.588 101.862 108.576C101.862 108.576 101.892 108.576 101.91 108.534C101.925 108.525 101.937 108.513 101.947 108.498C101.956 108.484 101.962 108.467 101.964 108.45C101.962 108.44 101.962 108.43 101.964 108.42H102C102 108.306 101.928 108.222 101.856 108.132C101.682 107.916 101.646 107.808 101.682 107.664C101.718 107.52 101.778 107.478 101.88 107.496C101.982 107.514 102.024 107.586 101.994 107.73V107.814L102.294 107.88V107.814C102.335 107.708 102.333 107.59 102.289 107.485C102.246 107.38 102.164 107.296 102.06 107.25L102.096 107.106L101.838 107.046L101.808 107.196C101.574 107.196 101.424 107.346 101.364 107.616C101.341 107.737 101.349 107.861 101.388 107.978C101.427 108.094 101.495 108.199 101.586 108.282C101.76 108.492 101.796 108.612 101.76 108.75C101.724 108.888 101.658 108.936 101.556 108.912C101.454 108.888 101.406 108.822 101.436 108.684L101.472 108.522L101.172 108.456V108.594C101.147 108.649 101.134 108.708 101.132 108.768C101.13 108.828 101.141 108.887 101.163 108.943C101.184 108.999 101.217 109.05 101.259 109.093C101.301 109.136 101.351 109.17 101.406 109.194V109.338L101.664 109.398L101.694 109.248H101.85C101.897 109.231 101.94 109.205 101.976 109.17C102.013 109.133 102.043 109.09 102.066 109.044C102 108.888 102 108.87 102 108.852Z" fill="#263238"/>
<path d="M103.65 108.756C103.648 108.708 103.635 108.661 103.614 108.618C103.608 108.594 103.608 108.57 103.614 108.546C103.623 108.528 103.638 108.513 103.656 108.504C103.818 108.36 103.62 108.168 103.464 108.132C103.41 108.118 103.354 108.119 103.3 108.134C103.247 108.149 103.198 108.177 103.158 108.216L103.284 107.748L103.836 107.868L103.896 107.58L103.068 107.4C103.051 107.44 103.039 107.483 103.032 107.526C103.032 107.568 103.086 107.58 103.086 107.628C103.086 107.676 103.086 107.67 103.086 107.694C103.097 107.729 103.121 107.759 103.152 107.778C103.182 107.778 103.212 107.832 103.206 107.868C103.21 107.88 103.21 107.892 103.206 107.904C103.184 107.959 103.144 108.005 103.092 108.036C103.069 108.04 103.047 108.053 103.032 108.072V108.108C103.032 108.15 102.984 108.174 102.948 108.198C102.912 108.222 102.822 108.414 102.786 108.546L103.086 108.612V108.552C103.116 108.408 103.194 108.372 103.29 108.39C103.386 108.408 103.446 108.48 103.41 108.624L103.314 109.068C103.314 109.206 103.212 109.248 103.11 109.224C103.008 109.2 102.96 109.14 102.99 108.996L103.032 108.81L102.732 108.744L102.696 108.912C102.673 108.977 102.664 109.046 102.67 109.115C102.675 109.184 102.696 109.251 102.729 109.311C102.763 109.372 102.809 109.424 102.864 109.466C102.92 109.507 102.984 109.536 103.051 109.55C103.119 109.565 103.189 109.565 103.256 109.55C103.324 109.536 103.387 109.507 103.443 109.466C103.499 109.425 103.545 109.372 103.578 109.312C103.612 109.252 103.633 109.185 103.638 109.116C103.66 108.997 103.664 108.876 103.65 108.756Z" fill="#263238"/>
<path d="M107.568 109.596C107.563 109.549 107.551 109.502 107.532 109.458C107.526 109.435 107.526 109.41 107.532 109.386C107.541 109.368 107.556 109.353 107.574 109.344C107.73 109.2 107.532 109.008 107.382 108.972C107.328 108.959 107.272 108.96 107.218 108.974C107.165 108.989 107.116 109.017 107.076 109.056L107.202 108.588L107.754 108.708L107.814 108.42L106.986 108.24C106.966 108.279 106.954 108.322 106.95 108.366C106.95 108.408 106.998 108.42 107.004 108.468C107.01 108.516 107.004 108.51 107.004 108.534C107.015 108.569 107.039 108.599 107.07 108.618C107.1 108.618 107.13 108.672 107.124 108.708C107.118 108.744 107.124 108.708 107.124 108.744C107.101 108.801 107.059 108.848 107.004 108.876C106.983 108.882 106.964 108.895 106.95 108.912C106.95 108.912 106.95 108.912 106.95 108.948C106.95 108.984 106.908 109.014 106.872 109.038C106.836 109.062 106.746 109.254 106.71 109.386L107.01 109.452V109.392C107.04 109.248 107.118 109.212 107.214 109.23C107.31 109.248 107.364 109.32 107.334 109.464L107.238 109.908C107.238 110.046 107.136 110.088 107.034 110.064C106.932 110.04 106.884 109.98 106.914 109.836L106.956 109.65L106.656 109.584L106.62 109.752C106.602 109.815 106.597 109.882 106.606 109.947C106.614 110.012 106.636 110.074 106.669 110.131C106.703 110.187 106.748 110.236 106.801 110.274C106.855 110.313 106.915 110.34 106.979 110.354C107.044 110.368 107.11 110.368 107.174 110.356C107.239 110.343 107.3 110.317 107.354 110.28C107.408 110.243 107.454 110.195 107.489 110.139C107.523 110.083 107.546 110.021 107.556 109.956C107.58 109.838 107.584 109.716 107.568 109.596Z" fill="#263238"/>
<path d="M104.334 108.162C104.364 108.018 104.442 107.976 104.538 108C104.569 108.004 104.598 108.019 104.618 108.042C104.639 108.065 104.651 108.095 104.652 108.126H104.754C104.758 108.144 104.765 108.16 104.775 108.175C104.786 108.189 104.799 108.201 104.814 108.21C104.85 108.24 104.898 108.258 104.94 108.288C104.96 108.225 104.966 108.159 104.959 108.093C104.951 108.027 104.929 107.964 104.895 107.907C104.861 107.851 104.816 107.802 104.761 107.764C104.707 107.726 104.645 107.7 104.58 107.688C104.514 107.666 104.444 107.659 104.375 107.669C104.306 107.678 104.24 107.703 104.182 107.742C104.124 107.781 104.075 107.832 104.041 107.893C104.006 107.953 103.985 108.021 103.98 108.09C103.978 108.128 103.978 108.166 103.98 108.204C103.98 108.3 103.98 108.27 104.076 108.306C104.172 108.342 104.202 108.39 104.118 108.42H104.172C104.172 108.42 104.172 108.462 104.172 108.48C104.172 108.498 104.172 108.51 104.142 108.534C104.148 108.55 104.148 108.567 104.142 108.582C104.142 108.582 104.094 108.66 104.082 108.672C104.065 108.702 104.04 108.727 104.01 108.744C103.932 108.792 103.896 108.744 103.872 108.864C103.848 108.984 103.842 108.996 103.83 109.056C103.807 109.122 103.799 109.192 103.805 109.261C103.81 109.33 103.831 109.398 103.865 109.459C103.899 109.519 103.945 109.572 104.001 109.614C104.057 109.655 104.121 109.685 104.189 109.7C104.257 109.715 104.327 109.715 104.395 109.701C104.464 109.686 104.528 109.658 104.584 109.617C104.641 109.576 104.687 109.524 104.722 109.463C104.756 109.403 104.778 109.336 104.784 109.266L104.88 108.846H104.844C104.773 108.814 104.705 108.776 104.64 108.732L104.586 108.684L104.466 109.224C104.466 109.368 104.358 109.41 104.262 109.386C104.166 109.362 104.112 109.296 104.142 109.152L104.316 108.336C104.313 108.286 104.325 108.235 104.352 108.192L104.334 108.162Z" fill="#263238"/>
<path d="M105.811 109.152H105.841C105.841 109.122 105.841 109.092 105.841 109.05H105.973L106.075 108.588C106.098 108.522 106.107 108.452 106.101 108.383C106.095 108.314 106.074 108.246 106.04 108.186C106.007 108.125 105.96 108.072 105.904 108.03C105.848 107.989 105.784 107.96 105.716 107.945C105.648 107.93 105.578 107.929 105.51 107.944C105.442 107.958 105.377 107.986 105.321 108.027C105.265 108.068 105.218 108.121 105.183 108.181C105.149 108.242 105.128 108.309 105.121 108.378V108.462C105.163 108.498 105.187 108.558 105.229 108.588C105.271 108.618 105.337 108.588 105.319 108.69C105.301 108.792 105.283 108.774 105.319 108.804C105.355 108.834 105.361 108.804 105.367 108.846C105.374 108.855 105.378 108.867 105.378 108.879C105.378 108.891 105.374 108.903 105.367 108.912C105.367 108.912 105.325 108.912 105.319 108.966C105.313 109.02 105.319 109.056 105.283 109.068C105.247 109.08 105.169 108.996 105.103 109.002C105.079 109.009 105.058 109.022 105.041 109.04C105.024 109.058 105.012 109.08 105.007 109.104C104.976 109.206 104.954 109.31 104.941 109.416C104.919 109.479 104.911 109.547 104.919 109.614C104.926 109.68 104.948 109.745 104.983 109.802C105.018 109.859 105.065 109.908 105.121 109.945C105.177 109.982 105.24 110.006 105.307 110.016C105.375 110.034 105.446 110.037 105.516 110.025C105.585 110.012 105.651 109.985 105.709 109.944C105.762 109.898 105.807 109.843 105.841 109.782C105.868 109.751 105.883 109.712 105.883 109.671C105.883 109.63 105.868 109.591 105.841 109.56H105.811L105.769 109.416C105.769 109.416 105.769 109.416 105.811 109.38C105.853 109.344 105.811 109.266 105.871 109.224C105.931 109.182 105.799 109.164 105.811 109.152ZM105.559 109.56C105.529 109.704 105.451 109.746 105.349 109.722C105.247 109.698 105.199 109.632 105.229 109.488L105.469 108.408C105.499 108.264 105.571 108.222 105.673 108.246C105.775 108.27 105.823 108.336 105.793 108.48L105.559 109.56Z" fill="#263238"/>
<path d="M106.345 109.896L106.279 110.202L105.973 110.136L106.039 109.83L106.345 109.896Z" fill="#263238"/>
<path d="M108.852 109.362C108.888 109.362 108.888 109.224 108.9 109.176C108.923 109.11 108.932 109.04 108.926 108.971C108.92 108.902 108.899 108.834 108.865 108.774C108.831 108.713 108.785 108.66 108.729 108.618C108.673 108.577 108.609 108.547 108.541 108.532C108.473 108.518 108.403 108.517 108.335 108.531C108.267 108.546 108.202 108.574 108.146 108.615C108.09 108.656 108.043 108.709 108.008 108.769C107.974 108.829 107.952 108.897 107.946 108.966L107.856 109.368C107.934 109.44 107.856 109.554 107.892 109.638C107.928 109.722 107.892 109.638 107.892 109.674C107.892 109.71 107.802 109.728 107.802 109.776C107.802 109.776 107.754 109.848 107.724 109.884C107.705 109.912 107.694 109.946 107.694 109.98C107.671 110.046 107.662 110.115 107.668 110.185C107.674 110.254 107.694 110.321 107.728 110.382C107.762 110.443 107.809 110.496 107.864 110.537C107.92 110.579 107.984 110.608 108.052 110.623C108.12 110.638 108.191 110.639 108.259 110.624C108.327 110.61 108.391 110.581 108.448 110.541C108.504 110.5 108.551 110.447 108.585 110.387C108.62 110.326 108.641 110.259 108.648 110.19L108.72 109.86C108.72 109.776 108.828 109.554 108.72 109.488C108.612 109.422 108.672 109.488 108.66 109.446C108.652 109.432 108.649 109.417 108.649 109.401C108.649 109.385 108.652 109.37 108.66 109.356C108.732 109.296 108.786 109.398 108.852 109.362ZM108.486 109.89C108.486 109.926 108.426 109.938 108.396 109.986C108.373 110.045 108.359 110.108 108.354 110.172C108.324 110.316 108.246 110.352 108.15 110.334C108.054 110.316 107.994 110.244 108.03 110.1C108.03 110.058 108.084 109.938 108.072 109.902C108.06 109.866 108.012 109.902 107.988 109.83C107.97 109.767 107.97 109.701 107.988 109.638C107.991 109.624 107.991 109.61 107.988 109.596C107.988 109.596 107.958 109.542 107.988 109.518C107.988 109.518 107.988 109.44 107.988 109.386C108.18 109.458 108.174 109.164 108.204 109.044C108.234 108.924 108.312 108.858 108.408 108.882C108.504 108.906 108.558 108.972 108.528 109.11C108.487 109.232 108.463 109.359 108.456 109.488C108.481 109.492 108.504 109.504 108.521 109.522C108.539 109.541 108.549 109.565 108.552 109.59C108.546 109.622 108.546 109.654 108.552 109.686C108.552 109.686 108.552 109.74 108.552 109.764C108.552 109.788 108.516 109.764 108.492 109.764C108.475 109.77 108.46 109.781 108.449 109.795C108.437 109.808 108.429 109.824 108.426 109.842L108.486 109.89Z" fill="#263238"/>
<path d="M105.498 105L107.526 105.444" stroke="#263238" stroke-width="0.6" stroke-linecap="round" stroke-linejoin="round"/>
<path d="M100.89 103.992L104.49 104.784" stroke="#263238" stroke-width="0.6" stroke-linecap="round" stroke-linejoin="round"/>
<path d="M100.59 105.384L102.966 105.9" stroke="#263238" stroke-width="0.6" stroke-linecap="round" stroke-linejoin="round"/>
<path opacity="0.4" d="M79.8008 196.134C82.9537 195.309 86.1959 194.874 89.4548 194.838C95.3108 194.694 99.0548 195.804 103.855 193.428C108.655 191.052 111.769 195.33 116.359 192.954C120.949 190.578 123.079 186.774 125.731 186.858C128.383 186.942 132.331 144.444 133.603 137.13C134.875 129.816 137.581 109.428 138.511 105.288L133.285 197.43L79.8008 196.134Z" fill="white"/>
<path d="M80.0525 178.002L94.6865 195.804L79.2305 194.844L80.0525 178.002Z" fill="#59459C" stroke="#263238" stroke-width="0.6" stroke-linecap="round" stroke-linejoin="round"/>
<path d="M118.89 142.8L118.656 149.574C118.624 150.519 118.405 151.449 118.014 152.309C117.622 153.17 117.064 153.945 116.373 154.591C115.681 155.236 114.869 155.738 113.984 156.07C113.098 156.401 112.156 156.555 111.21 156.522L104.25 156.276C103.303 156.244 102.37 156.024 101.508 155.63C100.645 155.237 99.8685 154.676 99.2229 153.982C98.5773 153.287 98.0753 152.472 97.7457 151.583C97.4161 150.693 97.2654 149.748 97.3023 148.8L97.6143 139.98C97.6816 138.072 98.5037 136.269 99.9 134.967C101.296 133.666 103.152 132.972 105.06 133.038L112.02 133.278C112.212 133.278 112.404 133.278 112.62 133.32C111.646 134.257 111.032 135.505 110.883 136.849C110.734 138.192 111.061 139.545 111.807 140.672C112.552 141.799 113.669 142.629 114.963 143.018C116.257 143.407 117.647 143.33 118.89 142.8Z" fill="#59459C" stroke="#263238" stroke-width="0.6" stroke-linecap="round" stroke-linejoin="round"/>
<path d="M120.144 136.95C120.122 137.601 119.908 138.231 119.528 138.761C119.148 139.29 118.619 139.695 118.009 139.924C117.399 140.153 116.735 140.196 116.101 140.047C115.466 139.899 114.89 139.565 114.445 139.089C114 138.613 113.706 138.016 113.601 137.373C113.496 136.73 113.583 136.07 113.853 135.477C114.122 134.884 114.562 134.384 115.116 134.04C115.669 133.697 116.313 133.526 116.964 133.548C117.836 133.579 118.66 133.955 119.256 134.592C119.852 135.23 120.171 136.077 120.144 136.95Z" fill="#59459C" stroke="#263238" stroke-width="0.6" stroke-linecap="round" stroke-linejoin="round"/>
<path opacity="0.4" d="M99.2822 149.64L109.512 140.892C109.512 140.892 108.216 136.206 109.512 134.724H104.598C103.415 134.72 102.275 135.168 101.41 135.977C100.546 136.785 100.023 137.893 99.9482 139.074L99.2822 149.64Z" fill="white"/>
<path opacity="0.4" d="M115.459 137.13L117.649 134.73C117.649 134.73 116.287 133.812 115.459 134.73C114.631 135.648 115.459 137.13 115.459 137.13Z" fill="white"/>
<path d="M114.39 189.396L130.884 190.11" stroke="#263238" stroke-width="0.6" stroke-linecap="round" stroke-linejoin="round"/>
<path d="M108.678 191.058L130.884 192.246" stroke="#263238" stroke-width="0.6" stroke-linecap="round" stroke-linejoin="round"/>
<path d="M125.07 195.804H130.884" stroke="#263238" stroke-width="0.6" stroke-linecap="round" stroke-linejoin="round"/>
<path opacity="0.2" d="M104.855 135.222C96.3475 139.314 87.1315 124.98 83.9035 123.006C83.1076 122.504 82.3657 121.921 81.6895 121.266L83.0935 97.7461L107.999 98.7481C107.837 102.252 107.891 106.122 108.671 108.348C110.351 113.202 113.357 131.136 104.855 135.222Z" fill="black" fill-opacity="0.7"/>
<path opacity="0.4" d="M95.3223 135.954C95.3223 135.954 102.126 138.906 105.21 137.154C108.294 135.402 111.618 132.054 112.092 124.62C112.092 124.62 116.142 135.09 107.976 138.228C99.8103 141.366 95.3223 135.954 95.3223 135.954Z" fill="white"/>
<path opacity="0.4" d="M92.6699 140.142C92.6699 140.142 106.47 143.85 112.374 137.142C112.374 137.142 111.582 140.868 105.21 141.942C98.8379 143.016 92.6699 140.142 92.6699 140.142Z" fill="white"/>
<path opacity="0.4" d="M114.865 116.172C113.815 114.306 115.105 131.076 115.105 131.076C115.105 131.076 117.001 120 114.865 116.172Z" fill="white"/>
</g>
<path d="M140.172 100.038L134.352 198.888L77.1777 197.01L81.6897 121.266L83.0937 97.7456L108.006 98.7476L140.172 100.038Z" stroke="#263238" stroke-width="0.6" stroke-linecap="round" stroke-linejoin="round"/>
<path opacity="0.4" d="M137.279 199.416L135.197 198.888L140.171 108.366L141.053 114.342L137.279 199.416Z" fill="white"/>
<path d="M104.856 135.222C104.069 135.64 103.194 135.865 102.303 135.878C101.412 135.892 100.531 135.694 99.7316 135.3C98.3484 134.574 97.2325 133.426 96.5456 132.024C94.1756 127.752 87.7616 118.02 86.5796 115.224C85.3976 112.428 82.7815 104.52 80.1715 101.202C77.5615 97.8837 76.1335 92.8917 76.1335 92.8917L75.1855 44.4717C76.6075 51.4737 80.5256 59.4237 80.5256 59.4237C83.9296 61.195 86.8219 63.8104 88.9256 67.0197C89.5379 67.6718 90.0864 68.381 90.5635 69.1377C94.4396 75.1377 96.3175 85.9377 96.5215 94.3377C96.7615 103.836 99.8456 108.138 104.832 116.412C109.818 124.686 108.096 133.38 104.856 135.222Z" fill="white"/>
<path opacity="0.4" d="M104.856 135.222C104.066 135.63 103.192 135.85 102.303 135.863C101.414 135.877 100.534 135.684 99.7319 135.3C102.456 134.556 106.032 133.158 105.21 131.1C103.92 127.812 100.146 132.69 98.2499 131.1C96.3539 129.51 89.4659 120.39 93.8399 116.376C98.2139 112.362 96.8399 105.63 93.8399 103.734C90.8399 101.838 92.7899 97.3203 93.7379 90.2103C94.3379 85.9083 92.2799 76.1643 90.5879 69.1323C94.4639 75.1323 96.3419 85.9323 96.5459 94.3323C96.7859 103.83 99.8699 108.132 104.856 116.406C109.842 124.68 108.096 133.494 104.856 135.222Z" fill="#59459C"/>
<path d="M75.1855 44.4419C76.6075 51.4439 80.5256 59.3939 80.5256 59.3939C83.9296 61.1652 86.8219 63.7807 88.9256 66.9899C93.9116 72.2099 96.2875 84.7919 96.5215 94.2839C96.7555 103.776 99.8455 108.084 104.832 116.358C109.818 124.632 108.432 133.26 104.832 135.222C102.324 136.596 98.8975 136.296 96.5215 132.024C94.1455 127.752 87.7375 118.02 86.5555 115.224C85.3735 112.428 82.7575 104.52 80.1475 101.202C77.5375 97.8839 76.1095 92.8919 76.1095 92.8919" stroke="#263238" stroke-width="0.6" stroke-linecap="round" stroke-linejoin="round"/>
<path d="M90.5996 114.342C90.5996 114.342 94.4756 113.994 96.2516 112.542" stroke="#263238" stroke-width="0.6" stroke-linecap="round" stroke-linejoin="round"/>
<path d="M74.711 93.8457C74.711 93.8457 73.955 95.6457 77.915 97.4457" stroke="#263238" stroke-width="0.6" stroke-linecap="round" stroke-linejoin="round"/>
</svg>
