<svg width="375" height="500" viewBox="0 0 375 500" fill="none" xmlns="http://www.w3.org/2000/svg">
<path d="M438 382.4H-62V382.65H438V382.4Z" fill="#EBEBEB"/>
<path d="M387.899 398.49H354.779V398.74H387.899V398.49Z" fill="#EBEBEB"/>
<path d="M269.22 401.21H260.53V401.46H269.22V401.21Z" fill="#EBEBEB"/>
<path d="M353.78 389.21H334.59V389.46H353.78V389.21Z" fill="#EBEBEB"/>
<path d="M33.65 390.89H-9.54004V391.14H33.65V390.89Z" fill="#EBEBEB"/>
<path d="M48.8896 390.89H42.5596V391.14H48.8896V390.89Z" fill="#EBEBEB"/>
<path d="M163.15 395.11H69.4697V395.36H163.15V395.11Z" fill="#EBEBEB"/>
<path d="M175 337.8H-18.09C-19.6027 337.797 -21.0525 337.195 -22.1212 336.124C-23.1898 335.053 -23.79 333.603 -23.79 332.09V60.66C-23.7769 59.156 -23.1708 57.718 -22.1036 56.6582C-21.0363 55.5985 -19.5941 55.0026 -18.09 55H175C176.514 55 177.967 55.6016 179.038 56.6724C180.108 57.7433 180.71 59.1956 180.71 60.71V332.09C180.71 333.604 180.108 335.057 179.038 336.128C177.967 337.198 176.514 337.8 175 337.8ZM-18.09 55.2C-19.5364 55.2026 -20.9226 55.7791 -21.9444 56.8027C-22.9662 57.8264 -23.54 59.2136 -23.54 60.66V332.09C-23.54 333.536 -22.9662 334.924 -21.9444 335.947C-20.9226 336.971 -19.5364 337.547 -18.09 337.55H175C176.447 337.547 177.834 336.971 178.858 335.948C179.881 334.924 180.457 333.537 180.46 332.09V60.66C180.457 59.2127 179.881 57.8255 178.858 56.8021C177.834 55.7787 176.447 55.2026 175 55.2H-18.09Z" fill="#EBEBEB"/>
<path d="M391.31 337.8H198.21C196.696 337.797 195.246 337.195 194.175 336.125C193.105 335.054 192.503 333.604 192.5 332.09V60.66C192.516 59.1551 193.124 57.7171 194.193 56.6576C195.262 55.5981 196.705 55.0025 198.21 55H391.31C392.812 55.0052 394.252 55.6022 395.317 56.6617C396.382 57.7212 396.987 59.1578 397 60.66V332.09C397 333.601 396.401 335.05 395.335 336.121C394.268 337.191 392.821 337.795 391.31 337.8ZM198.21 55.2C196.763 55.2026 195.375 55.7787 194.352 56.8021C193.329 57.8255 192.753 59.2127 192.75 60.66V332.09C192.753 333.537 193.329 334.924 194.352 335.948C195.375 336.971 196.763 337.547 198.21 337.55H391.31C392.757 337.547 394.145 336.971 395.168 335.948C396.191 334.924 396.767 333.537 396.77 332.09V60.66C396.767 59.2127 396.191 57.8255 395.168 56.8021C394.145 55.7787 392.757 55.2026 391.31 55.2H198.21Z" fill="#EBEBEB"/>
<path d="M2.17969 382.57V334.77H6.26968V312H12.2497V232.81H20.8797V222.6L39.3197 214V203.7H41.8697V232.81H45.4497V312H49.0297V270.36H58.7297V248.91H61.4397V312H68.8097V287.99H73.6697V281.86H84.9097V260.91H91.0597V246.1H98.6297V224.51H101.32V246.1H108.89V260.91H115.04V281.86H126.28V287.99H131.14V312H136.89V281.86H148.13V216.98H151.71V209.83H175.72V216.98H180.83V263.98H201.26V268.57H208.92V272.15H201.26V290.54H222.71V229.24H227.31V216.21H237.27V169.98H240.08V216.21H247.24V229.24H289.17V224.95H291.72V254.07H295.3V254.58H297.44V283.7H301.02V291.62H308.58V270.16H311.29V321.25H314.3V299.79H317.01V333.25H318.66V309.24H323.51V303.11H334.75V282.17H340.9V267.35H348.47V245.77H351.17V267.35H358.74V282.17H364.89V303.11H376.13V309.24H380.98V332.74H381.85V333.25H384.26V382.57H2.17969Z" fill="#E6E6E6"/>
<path d="M265.77 232.1H262.88V234.99H265.77V232.1Z" fill="#F0F0F0"/>
<path d="M265.77 236.96H262.88V239.85H265.77V236.96Z" fill="#F0F0F0"/>
<path d="M265.77 256.37H262.88V259.26H265.77V256.37Z" fill="#F0F0F0"/>
<path d="M265.77 261.22H262.88V264.11H265.77V261.22Z" fill="#F0F0F0"/>
<path d="M265.77 266.08H262.88V268.98H265.77V266.08Z" fill="#F0F0F0"/>
<path d="M265.77 280.63H262.88V283.52H265.77V280.63Z" fill="#F0F0F0"/>
<path d="M265.771 285.49H262.881V288.39H265.771V285.49Z" fill="#F0F0F0"/>
<path d="M261.17 251.52H258.28V254.41H261.17V251.52Z" fill="#F0F0F0"/>
<path d="M261.17 256.37H258.28V259.26H261.17V256.37Z" fill="#F0F0F0"/>
<path d="M261.17 261.22H258.28V264.11H261.17V261.22Z" fill="#F0F0F0"/>
<path d="M261.17 266.08H258.28V268.98H261.17V266.08Z" fill="#F0F0F0"/>
<path d="M261.17 270.93H258.28V273.83H261.17V270.93Z" fill="#F0F0F0"/>
<path d="M261.17 280.63H258.28V283.52H261.17V280.63Z" fill="#F0F0F0"/>
<path d="M261.17 285.49H258.28V288.39H261.17V285.49Z" fill="#F0F0F0"/>
<path d="M256.57 232.1H253.68V234.99H256.57V232.1Z" fill="#F0F0F0"/>
<path d="M256.57 236.959H253.68V239.849H256.57V236.959Z" fill="#F0F0F0"/>
<path d="M256.57 241.81H253.68V244.71H256.57V241.81Z" fill="#F0F0F0"/>
<path d="M256.57 246.66H253.68V249.56H256.57V246.66Z" fill="#F0F0F0"/>
<path d="M256.57 251.52H253.68V254.41H256.57V251.52Z" fill="#F0F0F0"/>
<path d="M256.57 256.37H253.68V259.26H256.57V256.37Z" fill="#F0F0F0"/>
<path d="M256.57 261.22H253.68V264.11H256.57V261.22Z" fill="#F0F0F0"/>
<path d="M256.57 266.08H253.68V268.98H256.57V266.08Z" fill="#F0F0F0"/>
<path d="M256.57 270.93H253.68V273.83H256.57V270.93Z" fill="#F0F0F0"/>
<path d="M256.57 275.78H253.68V278.68H256.57V275.78Z" fill="#F0F0F0"/>
<path d="M256.57 285.49H253.68V288.39H256.57V285.49Z" fill="#F0F0F0"/>
<path d="M251.969 232.1H249.079V234.99H251.969V232.1Z" fill="#F0F0F0"/>
<path d="M251.969 236.96H249.079V239.85H251.969V236.96Z" fill="#F0F0F0"/>
<path d="M251.969 241.81H249.079V244.71H251.969V241.81Z" fill="#F0F0F0"/>
<path d="M251.969 246.66H249.079V249.56H251.969V246.66Z" fill="#F0F0F0"/>
<path d="M251.969 251.52H249.079V254.41H251.969V251.52Z" fill="#F0F0F0"/>
<path d="M251.969 256.37H249.079V259.26H251.969V256.37Z" fill="#F0F0F0"/>
<path d="M251.969 261.22H249.079V264.11H251.969V261.22Z" fill="#F0F0F0"/>
<path d="M251.969 304.9H249.079V307.79H251.969V304.9Z" fill="#F0F0F0"/>
<path d="M247.37 232.1H244.48V234.99H247.37V232.1Z" fill="#F0F0F0"/>
<path d="M247.37 236.959H244.48V239.849H247.37V236.959Z" fill="#F0F0F0"/>
<path d="M247.37 241.81H244.48V244.71H247.37V241.81Z" fill="#F0F0F0"/>
<path d="M247.37 246.66H244.48V249.56H247.37V246.66Z" fill="#F0F0F0"/>
<path d="M247.37 251.52H244.48V254.41H247.37V251.52Z" fill="#F0F0F0"/>
<path d="M247.37 256.37H244.48V259.26H247.37V256.37Z" fill="#F0F0F0"/>
<path d="M247.37 261.22H244.48V264.11H247.37V261.22Z" fill="#F0F0F0"/>
<path d="M247.37 266.08H244.48V268.98H247.37V266.08Z" fill="#F0F0F0"/>
<path d="M247.37 295.19H244.48V298.08H247.37V295.19Z" fill="#F0F0F0"/>
<path d="M247.37 300.049H244.48V302.939H247.37V300.049Z" fill="#F0F0F0"/>
<path d="M247.37 304.9H244.48V307.79H247.37V304.9Z" fill="#F0F0F0"/>
<path d="M247.37 309.75H244.48V312.65H247.37V309.75Z" fill="#F0F0F0"/>
<path d="M247.37 329.17H244.48V332.06H247.37V329.17Z" fill="#F0F0F0"/>
<path d="M242.78 232.1H239.89V234.99H242.78V232.1Z" fill="#F0F0F0"/>
<path d="M242.78 236.959H239.89V239.849H242.78V236.959Z" fill="#F0F0F0"/>
<path d="M242.78 241.81H239.89V244.71H242.78V241.81Z" fill="#F0F0F0"/>
<path d="M242.78 246.66H239.89V249.56H242.78V246.66Z" fill="#F0F0F0"/>
<path d="M242.78 251.52H239.89V254.41H242.78V251.52Z" fill="#F0F0F0"/>
<path d="M242.78 256.37H239.89V259.26H242.78V256.37Z" fill="#F0F0F0"/>
<path d="M242.78 261.22H239.89V264.11H242.78V261.22Z" fill="#F0F0F0"/>
<path d="M242.78 266.08H239.89V268.98H242.78V266.08Z" fill="#F0F0F0"/>
<path d="M242.78 270.93H239.89V273.83H242.78V270.93Z" fill="#F0F0F0"/>
<path d="M242.78 275.78H239.89V278.68H242.78V275.78Z" fill="#F0F0F0"/>
<path d="M242.78 290.34H239.89V293.23H242.78V290.34Z" fill="#F0F0F0"/>
<path d="M242.78 295.19H239.89V298.08H242.78V295.19Z" fill="#F0F0F0"/>
<path d="M242.78 300.049H239.89V302.939H242.78V300.049Z" fill="#F0F0F0"/>
<path d="M242.78 304.9H239.89V307.79H242.78V304.9Z" fill="#F0F0F0"/>
<path d="M242.78 309.75H239.89V312.65H242.78V309.75Z" fill="#F0F0F0"/>
<path d="M242.78 329.17H239.89V332.06H242.78V329.17Z" fill="#F0F0F0"/>
<path d="M238.18 232.1H235.29V234.99H238.18V232.1Z" fill="#F0F0F0"/>
<path d="M238.18 236.96H235.29V239.85H238.18V236.96Z" fill="#F0F0F0"/>
<path d="M238.18 241.81H235.29V244.71H238.18V241.81Z" fill="#F0F0F0"/>
<path d="M238.18 246.66H235.29V249.56H238.18V246.66Z" fill="#F0F0F0"/>
<path d="M238.18 251.52H235.29V254.41H238.18V251.52Z" fill="#F0F0F0"/>
<path d="M238.18 256.37H235.29V259.26H238.18V256.37Z" fill="#F0F0F0"/>
<path d="M238.18 261.22H235.29V264.11H238.18V261.22Z" fill="#F0F0F0"/>
<path d="M238.18 266.08H235.29V268.98H238.18V266.08Z" fill="#F0F0F0"/>
<path d="M238.18 270.93H235.29V273.83H238.18V270.93Z" fill="#F0F0F0"/>
<path d="M238.18 275.78H235.29V278.68H238.18V275.78Z" fill="#F0F0F0"/>
<path d="M238.18 280.63H235.29V283.52H238.18V280.63Z" fill="#F0F0F0"/>
<path d="M238.18 285.49H235.29V288.39H238.18V285.49Z" fill="#F0F0F0"/>
<path d="M238.18 290.34H235.29V293.23H238.18V290.34Z" fill="#F0F0F0"/>
<path d="M238.18 295.19H235.29V298.08H238.18V295.19Z" fill="#F0F0F0"/>
<path d="M238.18 300.05H235.29V302.94H238.18V300.05Z" fill="#F0F0F0"/>
<path d="M238.18 304.9H235.29V307.79H238.18V304.9Z" fill="#F0F0F0"/>
<path d="M238.18 309.75H235.29V312.65H238.18V309.75Z" fill="#F0F0F0"/>
<path d="M238.18 314.61H235.29V317.51H238.18V314.61Z" fill="#F0F0F0"/>
<path d="M233.58 232.1H230.69V234.99H233.58V232.1Z" fill="#F0F0F0"/>
<path d="M233.58 236.959H230.69V239.849H233.58V236.959Z" fill="#F0F0F0"/>
<path d="M233.58 241.81H230.69V244.71H233.58V241.81Z" fill="#F0F0F0"/>
<path d="M233.58 246.66H230.69V249.56H233.58V246.66Z" fill="#F0F0F0"/>
<path d="M233.58 251.52H230.69V254.41H233.58V251.52Z" fill="#F0F0F0"/>
<path d="M233.58 256.37H230.69V259.26H233.58V256.37Z" fill="#F0F0F0"/>
<path d="M233.58 261.22H230.69V264.11H233.58V261.22Z" fill="#F0F0F0"/>
<path d="M233.58 266.08H230.69V268.98H233.58V266.08Z" fill="#F0F0F0"/>
<path d="M233.58 270.93H230.69V273.83H233.58V270.93Z" fill="#F0F0F0"/>
<path d="M233.58 275.78H230.69V278.68H233.58V275.78Z" fill="#F0F0F0"/>
<path d="M233.58 290.34H230.69V293.23H233.58V290.34Z" fill="#F0F0F0"/>
<path d="M233.58 295.19H230.69V298.08H233.58V295.19Z" fill="#F0F0F0"/>
<path d="M233.58 300.049H230.69V302.939H233.58V300.049Z" fill="#F0F0F0"/>
<path d="M233.58 304.9H230.69V307.79H233.58V304.9Z" fill="#F0F0F0"/>
<path d="M228.98 232.1H226.09V234.99H228.98V232.1Z" fill="#F0F0F0"/>
<path d="M228.98 236.96H226.09V239.85H228.98V236.96Z" fill="#F0F0F0"/>
<path d="M228.98 241.81H226.09V244.71H228.98V241.81Z" fill="#F0F0F0"/>
<path d="M228.98 246.66H226.09V249.56H228.98V246.66Z" fill="#F0F0F0"/>
<path d="M228.98 251.52H226.09V254.41H228.98V251.52Z" fill="#F0F0F0"/>
<path d="M228.98 256.37H226.09V259.26H228.98V256.37Z" fill="#F0F0F0"/>
<path d="M228.98 261.22H226.09V264.11H228.98V261.22Z" fill="#F0F0F0"/>
<path d="M228.98 266.08H226.09V268.98H228.98V266.08Z" fill="#F0F0F0"/>
<path d="M228.98 270.93H226.09V273.83H228.98V270.93Z" fill="#F0F0F0"/>
<path d="M228.98 275.78H226.09V278.68H228.98V275.78Z" fill="#F0F0F0"/>
<path d="M228.98 290.34H226.09V293.23H228.98V290.34Z" fill="#F0F0F0"/>
<path d="M228.98 295.19H226.09V298.08H228.98V295.19Z" fill="#F0F0F0"/>
<path d="M228.98 300.05H226.09V302.94H228.98V300.05Z" fill="#F0F0F0"/>
<path d="M177.219 219.5H174.329V222.39H177.219V219.5Z" fill="#F0F0F0"/>
<path d="M177.219 224.36H174.329V227.25H177.219V224.36Z" fill="#F0F0F0"/>
<path d="M177.219 229.21H174.329V232.1H177.219V229.21Z" fill="#F0F0F0"/>
<path d="M177.219 234.06H174.329V236.95H177.219V234.06Z" fill="#F0F0F0"/>
<path d="M177.219 238.92H174.329V241.81H177.219V238.92Z" fill="#F0F0F0"/>
<path d="M177.219 243.77H174.329V246.66H177.219V243.77Z" fill="#F0F0F0"/>
<path d="M177.219 248.62H174.329V251.51H177.219V248.62Z" fill="#F0F0F0"/>
<path d="M177.219 253.47H174.329V256.36H177.219V253.47Z" fill="#F0F0F0"/>
<path d="M177.219 268.03H174.329V270.92H177.219V268.03Z" fill="#F0F0F0"/>
<path d="M177.219 272.89H174.329V275.78H177.219V272.89Z" fill="#F0F0F0"/>
<path d="M172.63 219.5H169.73V222.39H172.63V219.5Z" fill="#F0F0F0"/>
<path d="M172.63 224.36H169.73V227.25H172.63V224.36Z" fill="#F0F0F0"/>
<path d="M172.63 229.209H169.73V232.099H172.63V229.209Z" fill="#F0F0F0"/>
<path d="M172.63 234.061H169.73V236.951H172.63V234.061Z" fill="#F0F0F0"/>
<path d="M172.63 238.92H169.73V241.81H172.63V238.92Z" fill="#F0F0F0"/>
<path d="M172.63 243.77H169.73V246.66H172.63V243.77Z" fill="#F0F0F0"/>
<path d="M172.63 248.62H169.73V251.51H172.63V248.62Z" fill="#F0F0F0"/>
<path d="M172.63 253.47H169.73V256.36H172.63V253.47Z" fill="#F0F0F0"/>
<path d="M172.63 272.89H169.73V275.78H172.63V272.89Z" fill="#F0F0F0"/>
<path d="M168.03 219.5H165.13V222.39H168.03V219.5Z" fill="#F0F0F0"/>
<path d="M168.03 224.36H165.13V227.25H168.03V224.36Z" fill="#F0F0F0"/>
<path d="M168.03 229.21H165.13V232.1H168.03V229.21Z" fill="#F0F0F0"/>
<path d="M168.03 234.06H165.13V236.95H168.03V234.06Z" fill="#F0F0F0"/>
<path d="M168.03 238.92H165.13V241.81H168.03V238.92Z" fill="#F0F0F0"/>
<path d="M168.03 243.77H165.13V246.66H168.03V243.77Z" fill="#F0F0F0"/>
<path d="M168.03 248.62H165.13V251.51H168.03V248.62Z" fill="#F0F0F0"/>
<path d="M168.03 253.47H165.13V256.36H168.03V253.47Z" fill="#F0F0F0"/>
<path d="M163.43 219.5H160.53V222.39H163.43V219.5Z" fill="#F0F0F0"/>
<path d="M163.43 224.36H160.53V227.25H163.43V224.36Z" fill="#F0F0F0"/>
<path d="M163.43 229.209H160.53V232.099H163.43V229.209Z" fill="#F0F0F0"/>
<path d="M163.43 234.06H160.53V236.95H163.43V234.06Z" fill="#F0F0F0"/>
<path d="M163.43 238.92H160.53V241.81H163.43V238.92Z" fill="#F0F0F0"/>
<path d="M163.43 243.77H160.53V246.66H163.43V243.77Z" fill="#F0F0F0"/>
<path d="M163.43 253.47H160.53V256.36H163.43V253.47Z" fill="#F0F0F0"/>
<path d="M163.43 258.33H160.53V261.22H163.43V258.33Z" fill="#F0F0F0"/>
<path d="M163.43 272.89H160.53V275.78H163.43V272.89Z" fill="#F0F0F0"/>
<path d="M163.43 277.74H160.53V280.63H163.43V277.74Z" fill="#F0F0F0"/>
<path d="M163.43 282.59H160.53V285.48H163.43V282.59Z" fill="#F0F0F0"/>
<path d="M163.43 287.451H160.53V290.341H163.43V287.451Z" fill="#F0F0F0"/>
<path d="M163.43 292.299H160.53V295.189H163.43V292.299Z" fill="#F0F0F0"/>
<path d="M163.43 297.149H160.53V300.039H163.43V297.149Z" fill="#F0F0F0"/>
<path d="M163.43 302H160.53V304.9H163.43V302Z" fill="#F0F0F0"/>
<path d="M158.83 219.5H155.94V222.39H158.83V219.5Z" fill="#F0F0F0"/>
<path d="M158.83 224.36H155.94V227.25H158.83V224.36Z" fill="#F0F0F0"/>
<path d="M158.83 229.209H155.94V232.099H158.83V229.209Z" fill="#F0F0F0"/>
<path d="M158.83 234.06H155.94V236.95H158.83V234.06Z" fill="#F0F0F0"/>
<path d="M158.83 238.92H155.94V241.81H158.83V238.92Z" fill="#F0F0F0"/>
<path d="M158.83 243.77H155.94V246.66H158.83V243.77Z" fill="#F0F0F0"/>
<path d="M158.83 258.33H155.94V261.22H158.83V258.33Z" fill="#F0F0F0"/>
<path d="M158.83 263.18H155.94V266.07H158.83V263.18Z" fill="#F0F0F0"/>
<path d="M158.83 268.03H155.94V270.92H158.83V268.03Z" fill="#F0F0F0"/>
<path d="M158.83 272.89H155.94V275.78H158.83V272.89Z" fill="#F0F0F0"/>
<path d="M158.83 277.74H155.94V280.63H158.83V277.74Z" fill="#F0F0F0"/>
<path d="M158.83 282.59H155.94V285.48H158.83V282.59Z" fill="#F0F0F0"/>
<path d="M158.83 287.451H155.94V290.341H158.83V287.451Z" fill="#F0F0F0"/>
<path d="M158.83 292.299H155.94V295.189H158.83V292.299Z" fill="#F0F0F0"/>
<path d="M158.83 297.149H155.94V300.039H158.83V297.149Z" fill="#F0F0F0"/>
<path d="M158.83 302H155.94V304.9H158.83V302Z" fill="#F0F0F0"/>
<path d="M158.83 306.86H155.94V309.75H158.83V306.86Z" fill="#F0F0F0"/>
<path d="M158.83 316.56H155.94V319.45H158.83V316.56Z" fill="#F0F0F0"/>
<path d="M154.24 219.5H151.34V222.39H154.24V219.5Z" fill="#F0F0F0"/>
<path d="M154.24 224.36H151.34V227.25H154.24V224.36Z" fill="#F0F0F0"/>
<path d="M154.24 229.21H151.34V232.1H154.24V229.21Z" fill="#F0F0F0"/>
<path d="M154.24 234.06H151.34V236.95H154.24V234.06Z" fill="#F0F0F0"/>
<path d="M154.24 238.92H151.34V241.81H154.24V238.92Z" fill="#F0F0F0"/>
<path d="M154.24 243.77H151.34V246.66H154.24V243.77Z" fill="#F0F0F0"/>
<path d="M154.24 258.33H151.34V261.22H154.24V258.33Z" fill="#F0F0F0"/>
<path d="M154.24 263.18H151.34V266.07H154.24V263.18Z" fill="#F0F0F0"/>
<path d="M154.24 268.03H151.34V270.92H154.24V268.03Z" fill="#F0F0F0"/>
<path d="M154.24 272.89H151.34V275.78H154.24V272.89Z" fill="#F0F0F0"/>
<path d="M154.24 287.45H151.34V290.34H154.24V287.45Z" fill="#F0F0F0"/>
<path d="M154.24 292.3H151.34V295.19H154.24V292.3Z" fill="#F0F0F0"/>
<path d="M154.24 297.15H151.34V300.04H154.24V297.15Z" fill="#F0F0F0"/>
<path d="M154.24 302H151.34V304.9H154.24V302Z" fill="#F0F0F0"/>
<path d="M154.24 306.86H151.34V309.75H154.24V306.86Z" fill="#F0F0F0"/>
<path d="M154.24 316.56H151.34V319.45H154.24V316.56Z" fill="#F0F0F0"/>
<path d="M154.24 321.42H151.34V324.31H154.24V321.42Z" fill="#F0F0F0"/>
<path d="M112.51 264.63H109.62V267.52H112.51V264.63Z" fill="#F0F0F0"/>
<path d="M112.51 269.48H109.62V272.37H112.51V269.48Z" fill="#F0F0F0"/>
<path d="M112.51 274.33H109.62V277.22H112.51V274.33Z" fill="#F0F0F0"/>
<path d="M112.51 279.19H109.62V282.08H112.51V279.19Z" fill="#F0F0F0"/>
<path d="M112.51 284.04H109.62V286.93H112.51V284.04Z" fill="#F0F0F0"/>
<path d="M112.51 288.89H109.62V291.78H112.51V288.89Z" fill="#F0F0F0"/>
<path d="M112.51 293.75H109.62V296.64H112.51V293.75Z" fill="#F0F0F0"/>
<path d="M112.51 308.31H109.62V311.2H112.51V308.31Z" fill="#F0F0F0"/>
<path d="M112.51 313.16H109.62V316.05H112.51V313.16Z" fill="#F0F0F0"/>
<path d="M112.51 318.01H109.62V320.9H112.51V318.01Z" fill="#F0F0F0"/>
<path d="M107.91 264.63H105.02V267.52H107.91V264.63Z" fill="#F0F0F0"/>
<path d="M107.91 269.48H105.02V272.37H107.91V269.48Z" fill="#F0F0F0"/>
<path d="M107.91 274.33H105.02V277.22H107.91V274.33Z" fill="#F0F0F0"/>
<path d="M107.91 279.19H105.02V282.08H107.91V279.19Z" fill="#F0F0F0"/>
<path d="M107.91 284.041H105.02V286.931H107.91V284.041Z" fill="#F0F0F0"/>
<path d="M107.91 288.89H105.02V291.78H107.91V288.89Z" fill="#F0F0F0"/>
<path d="M107.91 293.75H105.02V296.64H107.91V293.75Z" fill="#F0F0F0"/>
<path d="M103.311 264.63H100.421V267.52H103.311V264.63Z" fill="#F0F0F0"/>
<path d="M103.311 269.48H100.421V272.37H103.311V269.48Z" fill="#F0F0F0"/>
<path d="M103.311 274.33H100.421V277.22H103.311V274.33Z" fill="#F0F0F0"/>
<path d="M103.311 279.19H100.421V282.08H103.311V279.19Z" fill="#F0F0F0"/>
<path d="M103.311 284.04H100.421V286.93H103.311V284.04Z" fill="#F0F0F0"/>
<path d="M103.311 288.89H100.421V291.78H103.311V288.89Z" fill="#F0F0F0"/>
<path d="M103.311 293.75H100.421V296.64H103.311V293.75Z" fill="#F0F0F0"/>
<path d="M98.7201 264.63H95.8301V267.52H98.7201V264.63Z" fill="#F0F0F0"/>
<path d="M98.7201 269.479H95.8301V272.369H98.7201V269.479Z" fill="#F0F0F0"/>
<path d="M98.7201 274.33H95.8301V277.22H98.7201V274.33Z" fill="#F0F0F0"/>
<path d="M98.7201 279.19H95.8301V282.08H98.7201V279.19Z" fill="#F0F0F0"/>
<path d="M98.7201 284.04H95.8301V286.93H98.7201V284.04Z" fill="#F0F0F0"/>
<path d="M98.7201 288.89H95.8301V291.78H98.7201V288.89Z" fill="#F0F0F0"/>
<path d="M98.7201 293.75H95.8301V296.64H98.7201V293.75Z" fill="#F0F0F0"/>
<path d="M98.7201 298.6H95.8301V301.49H98.7201V298.6Z" fill="#F0F0F0"/>
<path d="M98.7201 303.45H95.8301V306.34H98.7201V303.45Z" fill="#F0F0F0"/>
<path d="M98.7201 308.31H95.8301V311.2H98.7201V308.31Z" fill="#F0F0F0"/>
<path d="M98.7201 313.16H95.8301V316.05H98.7201V313.16Z" fill="#F0F0F0"/>
<path d="M94.1205 264.63H91.2305V267.52H94.1205V264.63Z" fill="#F0F0F0"/>
<path d="M94.1205 269.48H91.2305V272.37H94.1205V269.48Z" fill="#F0F0F0"/>
<path d="M94.1205 274.33H91.2305V277.22H94.1205V274.33Z" fill="#F0F0F0"/>
<path d="M94.1205 279.19H91.2305V282.08H94.1205V279.19Z" fill="#F0F0F0"/>
<path d="M94.1205 284.041H91.2305V286.931H94.1205V284.041Z" fill="#F0F0F0"/>
<path d="M94.1205 288.89H91.2305V291.78H94.1205V288.89Z" fill="#F0F0F0"/>
<path d="M94.1205 293.75H91.2305V296.64H94.1205V293.75Z" fill="#F0F0F0"/>
<path d="M94.1205 298.6H91.2305V301.49H94.1205V298.6Z" fill="#F0F0F0"/>
<path d="M94.1205 303.451H91.2305V306.341H94.1205V303.451Z" fill="#F0F0F0"/>
<path d="M94.1205 308.31H91.2305V311.2H94.1205V308.31Z" fill="#F0F0F0"/>
<path d="M94.1205 313.16H91.2305V316.05H94.1205V313.16Z" fill="#F0F0F0"/>
<path d="M94.1205 318.01H91.2305V320.9H94.1205V318.01Z" fill="#F0F0F0"/>
<path d="M94.1205 332.57H91.2305V335.46H94.1205V332.57Z" fill="#F0F0F0"/>
<path d="M94.1205 337.42H91.2305V340.31H94.1205V337.42Z" fill="#F0F0F0"/>
<path d="M89.5199 264.63H86.6299V267.52H89.5199V264.63Z" fill="#F0F0F0"/>
<path d="M89.5199 269.48H86.6299V272.37H89.5199V269.48Z" fill="#F0F0F0"/>
<path d="M89.5199 274.33H86.6299V277.22H89.5199V274.33Z" fill="#F0F0F0"/>
<path d="M89.5199 288.89H86.6299V291.78H89.5199V288.89Z" fill="#F0F0F0"/>
<path d="M89.5199 293.75H86.6299V296.64H89.5199V293.75Z" fill="#F0F0F0"/>
<path d="M89.5199 298.6H86.6299V301.49H89.5199V298.6Z" fill="#F0F0F0"/>
<path d="M89.5199 303.45H86.6299V306.34H89.5199V303.45Z" fill="#F0F0F0"/>
<path d="M89.5199 308.31H86.6299V311.2H89.5199V308.31Z" fill="#F0F0F0"/>
<path d="M89.5199 313.16H86.6299V316.05H89.5199V313.16Z" fill="#F0F0F0"/>
<path d="M89.5209 318.01H86.6309V320.9H89.5209V318.01Z" fill="#F0F0F0"/>
<path d="M89.5199 332.57H86.6299V335.46H89.5199V332.57Z" fill="#F0F0F0"/>
<path d="M89.5199 337.42H86.6299V340.31H89.5199V337.42Z" fill="#F0F0F0"/>
<path d="M89.5199 342.28H86.6299V345.18H89.5199V342.28Z" fill="#F0F0F0"/>
<path d="M41.3404 235.51H38.4404V238.4H41.3404V235.51Z" fill="#F0F0F0"/>
<path d="M41.3404 240.36H38.4404V243.25H41.3404V240.36Z" fill="#F0F0F0"/>
<path d="M41.3404 245.22H38.4404V248.11H41.3404V245.22Z" fill="#F0F0F0"/>
<path d="M41.3404 250.069H38.4404V252.959H41.3404V250.069Z" fill="#F0F0F0"/>
<path d="M41.3404 254.92H38.4404V257.81H41.3404V254.92Z" fill="#F0F0F0"/>
<path d="M41.3404 259.77H38.4404V262.66H41.3404V259.77Z" fill="#F0F0F0"/>
<path d="M41.3404 264.63H38.4404V267.52H41.3404V264.63Z" fill="#F0F0F0"/>
<path d="M41.3404 269.479H38.4404V272.369H41.3404V269.479Z" fill="#F0F0F0"/>
<path d="M41.3404 274.33H38.4404V277.22H41.3404V274.33Z" fill="#F0F0F0"/>
<path d="M41.3404 279.19H38.4404V282.08H41.3404V279.19Z" fill="#F0F0F0"/>
<path d="M41.3404 284.04H38.4404V286.93H41.3404V284.04Z" fill="#F0F0F0"/>
<path d="M41.3404 288.89H38.4404V291.78H41.3404V288.89Z" fill="#F0F0F0"/>
<path d="M41.3404 293.75H38.4404V296.64H41.3404V293.75Z" fill="#F0F0F0"/>
<path d="M41.3404 298.6H38.4404V301.49H41.3404V298.6Z" fill="#F0F0F0"/>
<path d="M41.3404 303.451H38.4404V306.341H41.3404V303.451Z" fill="#F0F0F0"/>
<path d="M41.3404 308.31H38.4404V311.2H41.3404V308.31Z" fill="#F0F0F0"/>
<path d="M41.3404 313.16H38.4404V316.05H41.3404V313.16Z" fill="#F0F0F0"/>
<path d="M41.3404 318.01H38.4404V320.9H41.3404V318.01Z" fill="#F0F0F0"/>
<path d="M41.3404 322.86H38.4404V325.75H41.3404V322.86Z" fill="#F0F0F0"/>
<path d="M41.3404 327.72H38.4404V330.61H41.3404V327.72Z" fill="#F0F0F0"/>
<path d="M41.3404 332.569H38.4404V335.459H41.3404V332.569Z" fill="#F0F0F0"/>
<path d="M41.3404 337.42H38.4404V340.31H41.3404V337.42Z" fill="#F0F0F0"/>
<path d="M41.3404 342.28H38.4404V345.18H41.3404V342.28Z" fill="#F0F0F0"/>
<path d="M36.7299 235.51H33.8398V238.4H36.7299V235.51Z" fill="#F0F0F0"/>
<path d="M36.7299 240.36H33.8398V243.25H36.7299V240.36Z" fill="#F0F0F0"/>
<path d="M36.7299 245.22H33.8398V248.11H36.7299V245.22Z" fill="#F0F0F0"/>
<path d="M36.7299 250.07H33.8398V252.96H36.7299V250.07Z" fill="#F0F0F0"/>
<path d="M36.7299 254.92H33.8398V257.81H36.7299V254.92Z" fill="#F0F0F0"/>
<path d="M36.7299 259.77H33.8398V262.66H36.7299V259.77Z" fill="#F0F0F0"/>
<path d="M36.7299 264.63H33.8398V267.52H36.7299V264.63Z" fill="#F0F0F0"/>
<path d="M36.7299 269.48H33.8398V272.37H36.7299V269.48Z" fill="#F0F0F0"/>
<path d="M36.7299 274.33H33.8398V277.22H36.7299V274.33Z" fill="#F0F0F0"/>
<path d="M36.7299 279.19H33.8398V282.08H36.7299V279.19Z" fill="#F0F0F0"/>
<path d="M36.7299 284.04H33.8398V286.93H36.7299V284.04Z" fill="#F0F0F0"/>
<path d="M36.7299 288.89H33.8398V291.78H36.7299V288.89Z" fill="#F0F0F0"/>
<path d="M36.7299 293.75H33.8398V296.64H36.7299V293.75Z" fill="#F0F0F0"/>
<path d="M36.7299 298.6H33.8398V301.49H36.7299V298.6Z" fill="#F0F0F0"/>
<path d="M36.7299 303.45H33.8398V306.34H36.7299V303.45Z" fill="#F0F0F0"/>
<path d="M36.7299 308.31H33.8398V311.2H36.7299V308.31Z" fill="#F0F0F0"/>
<path d="M36.7299 313.16H33.8398V316.05H36.7299V313.16Z" fill="#F0F0F0"/>
<path d="M36.7299 318.01H33.8398V320.9H36.7299V318.01Z" fill="#F0F0F0"/>
<path d="M36.7299 322.86H33.8398V325.75H36.7299V322.86Z" fill="#F0F0F0"/>
<path d="M32.14 235.51H29.25V238.4H32.14V235.51Z" fill="#F0F0F0"/>
<path d="M32.14 240.36H29.25V243.25H32.14V240.36Z" fill="#F0F0F0"/>
<path d="M32.14 245.22H29.25V248.11H32.14V245.22Z" fill="#F0F0F0"/>
<path d="M32.14 250.07H29.25V252.96H32.14V250.07Z" fill="#F0F0F0"/>
<path d="M32.14 254.92H29.25V257.81H32.14V254.92Z" fill="#F0F0F0"/>
<path d="M32.14 259.77H29.25V262.66H32.14V259.77Z" fill="#F0F0F0"/>
<path d="M32.14 264.63H29.25V267.52H32.14V264.63Z" fill="#F0F0F0"/>
<path d="M32.14 269.48H29.25V272.37H32.14V269.48Z" fill="#F0F0F0"/>
<path d="M32.14 274.33H29.25V277.22H32.14V274.33Z" fill="#F0F0F0"/>
<path d="M32.14 279.19H29.25V282.08H32.14V279.19Z" fill="#F0F0F0"/>
<path d="M32.14 284.04H29.25V286.93H32.14V284.04Z" fill="#F0F0F0"/>
<path d="M32.14 288.89H29.25V291.78H32.14V288.89Z" fill="#F0F0F0"/>
<path d="M32.14 293.75H29.25V296.64H32.14V293.75Z" fill="#F0F0F0"/>
<path d="M32.14 298.6H29.25V301.49H32.14V298.6Z" fill="#F0F0F0"/>
<path d="M32.14 303.45H29.25V306.34H32.14V303.45Z" fill="#F0F0F0"/>
<path d="M32.14 308.31H29.25V311.2H32.14V308.31Z" fill="#F0F0F0"/>
<path d="M32.14 313.16H29.25V316.05H32.14V313.16Z" fill="#F0F0F0"/>
<path d="M32.14 318.01H29.25V320.9H32.14V318.01Z" fill="#F0F0F0"/>
<path d="M32.14 322.86H29.25V325.75H32.14V322.86Z" fill="#F0F0F0"/>
<path d="M27.5414 235.51H24.6514V238.4H27.5414V235.51Z" fill="#F0F0F0"/>
<path d="M27.5414 240.36H24.6514V243.25H27.5414V240.36Z" fill="#F0F0F0"/>
<path d="M27.5414 245.22H24.6514V248.11H27.5414V245.22Z" fill="#F0F0F0"/>
<path d="M27.5414 250.069H24.6514V252.959H27.5414V250.069Z" fill="#F0F0F0"/>
<path d="M27.5414 254.92H24.6514V257.81H27.5414V254.92Z" fill="#F0F0F0"/>
<path d="M27.5414 259.77H24.6514V262.66H27.5414V259.77Z" fill="#F0F0F0"/>
<path d="M27.5414 264.63H24.6514V267.52H27.5414V264.63Z" fill="#F0F0F0"/>
<path d="M27.5414 269.479H24.6514V272.369H27.5414V269.479Z" fill="#F0F0F0"/>
<path d="M27.5414 274.33H24.6514V277.22H27.5414V274.33Z" fill="#F0F0F0"/>
<path d="M27.5414 279.19H24.6514V282.08H27.5414V279.19Z" fill="#F0F0F0"/>
<path d="M27.5414 284.04H24.6514V286.93H27.5414V284.04Z" fill="#F0F0F0"/>
<path d="M27.5414 288.89H24.6514V291.78H27.5414V288.89Z" fill="#F0F0F0"/>
<path d="M27.5414 293.75H24.6514V296.64H27.5414V293.75Z" fill="#F0F0F0"/>
<path d="M27.5414 298.6H24.6514V301.49H27.5414V298.6Z" fill="#F0F0F0"/>
<path d="M27.5414 303.451H24.6514V306.341H27.5414V303.451Z" fill="#F0F0F0"/>
<path d="M22.9398 235.51H20.0498V238.4H22.9398V235.51Z" fill="#F0F0F0"/>
<path d="M22.9398 240.36H20.0498V243.25H22.9398V240.36Z" fill="#F0F0F0"/>
<path d="M22.9398 245.22H20.0498V248.11H22.9398V245.22Z" fill="#F0F0F0"/>
<path d="M22.9398 250.07H20.0498V252.96H22.9398V250.07Z" fill="#F0F0F0"/>
<path d="M22.9398 254.92H20.0498V257.81H22.9398V254.92Z" fill="#F0F0F0"/>
<path d="M22.9398 259.77H20.0498V262.66H22.9398V259.77Z" fill="#F0F0F0"/>
<path d="M22.9398 264.63H20.0498V267.52H22.9398V264.63Z" fill="#F0F0F0"/>
<path d="M22.9398 269.48H20.0498V272.37H22.9398V269.48Z" fill="#F0F0F0"/>
<path d="M22.9398 274.33H20.0498V277.22H22.9398V274.33Z" fill="#F0F0F0"/>
<path d="M22.9398 279.19H20.0498V282.08H22.9398V279.19Z" fill="#F0F0F0"/>
<path d="M22.9398 284.04H20.0498V286.93H22.9398V284.04Z" fill="#F0F0F0"/>
<path d="M22.9398 288.89H20.0498V291.78H22.9398V288.89Z" fill="#F0F0F0"/>
<path d="M22.9398 293.75H20.0498V296.64H22.9398V293.75Z" fill="#F0F0F0"/>
<path d="M18.3402 235.51H15.4502V238.4H18.3402V235.51Z" fill="#F0F0F0"/>
<path d="M18.3402 240.36H15.4502V243.25H18.3402V240.36Z" fill="#F0F0F0"/>
<path d="M18.3402 245.22H15.4502V248.11H18.3402V245.22Z" fill="#F0F0F0"/>
<path d="M18.3402 250.07H15.4502V252.96H18.3402V250.07Z" fill="#F0F0F0"/>
<path d="M18.3402 254.92H15.4502V257.81H18.3402V254.92Z" fill="#F0F0F0"/>
<path d="M18.3402 259.77H15.4502V262.66H18.3402V259.77Z" fill="#F0F0F0"/>
<path d="M18.3402 264.63H15.4502V267.52H18.3402V264.63Z" fill="#F0F0F0"/>
<path d="M18.3402 269.479H15.4502V272.369H18.3402V269.479Z" fill="#F0F0F0"/>
<path d="M18.3402 274.33H15.4502V277.22H18.3402V274.33Z" fill="#F0F0F0"/>
<path d="M18.3402 279.19H15.4502V282.08H18.3402V279.19Z" fill="#F0F0F0"/>
<path d="M18.3402 284.04H15.4502V286.93H18.3402V284.04Z" fill="#F0F0F0"/>
<path d="M18.3402 288.89H15.4502V291.78H18.3402V288.89Z" fill="#F0F0F0"/>
<path d="M356.19 270.93H353.3V273.83H356.19V270.93Z" fill="#F0F0F0"/>
<path d="M356.19 275.78H353.3V278.68H356.19V275.78Z" fill="#F0F0F0"/>
<path d="M356.19 280.63H353.3V283.52H356.19V280.63Z" fill="#F0F0F0"/>
<path d="M356.19 285.49H353.3V288.39H356.19V285.49Z" fill="#F0F0F0"/>
<path d="M356.19 290.34H353.3V293.23H356.19V290.34Z" fill="#F0F0F0"/>
<path d="M356.19 295.19H353.3V298.08H356.19V295.19Z" fill="#F0F0F0"/>
<path d="M356.19 300.05H353.3V302.94H356.19V300.05Z" fill="#F0F0F0"/>
<path d="M356.19 304.9H353.3V307.79H356.19V304.9Z" fill="#F0F0F0"/>
<path d="M356.19 309.75H353.3V312.65H356.19V309.75Z" fill="#F0F0F0"/>
<path d="M356.19 314.61H353.3V317.51H356.19V314.61Z" fill="#F0F0F0"/>
<path d="M356.19 319.46H353.3V322.36H356.19V319.46Z" fill="#F0F0F0"/>
<path d="M356.19 324.31H353.3V327.2H356.19V324.31Z" fill="#F0F0F0"/>
<path d="M356.19 329.17H353.3V332.06H356.19V329.17Z" fill="#F0F0F0"/>
<path d="M356.19 334.02H353.3V336.91H356.19V334.02Z" fill="#F0F0F0"/>
<path d="M356.19 338.87H353.3V341.76H356.19V338.87Z" fill="#F0F0F0"/>
<path d="M356.19 343.72H353.3V346.61H356.19V343.72Z" fill="#F0F0F0"/>
<path d="M356.19 348.58H353.3V351.47H356.19V348.58Z" fill="#F0F0F0"/>
<path d="M356.19 353.43H353.3V356.32H356.19V353.43Z" fill="#F0F0F0"/>
<path d="M356.19 358.28H353.3V361.17H356.19V358.28Z" fill="#F0F0F0"/>
<path d="M356.19 363.14H353.3V366.03H356.19V363.14Z" fill="#F0F0F0"/>
<path d="M351.591 270.93H348.701V273.83H351.591V270.93Z" fill="#F0F0F0"/>
<path d="M351.591 275.78H348.701V278.68H351.591V275.78Z" fill="#F0F0F0"/>
<path d="M351.591 280.63H348.701V283.52H351.591V280.63Z" fill="#F0F0F0"/>
<path d="M351.591 285.49H348.701V288.39H351.591V285.49Z" fill="#F0F0F0"/>
<path d="M351.591 290.34H348.701V293.23H351.591V290.34Z" fill="#F0F0F0"/>
<path d="M351.591 295.19H348.701V298.08H351.591V295.19Z" fill="#F0F0F0"/>
<path d="M351.591 300.05H348.701V302.94H351.591V300.05Z" fill="#F0F0F0"/>
<path d="M351.591 304.899H348.701V307.789H351.591V304.899Z" fill="#F0F0F0"/>
<path d="M351.591 309.75H348.701V312.65H351.591V309.75Z" fill="#F0F0F0"/>
<path d="M351.591 314.61H348.701V317.51H351.591V314.61Z" fill="#F0F0F0"/>
<path d="M351.591 319.46H348.701V322.36H351.591V319.46Z" fill="#F0F0F0"/>
<path d="M351.591 324.31H348.701V327.2H351.591V324.31Z" fill="#F0F0F0"/>
<path d="M351.591 329.17H348.701V332.06H351.591V329.17Z" fill="#F0F0F0"/>
<path d="M351.591 334.02H348.701V336.91H351.591V334.02Z" fill="#F0F0F0"/>
<path d="M351.591 338.87H348.701V341.76H351.591V338.87Z" fill="#F0F0F0"/>
<path d="M351.591 343.72H348.701V346.61H351.591V343.72Z" fill="#F0F0F0"/>
<path d="M351.591 348.58H348.701V351.47H351.591V348.58Z" fill="#F0F0F0"/>
<path d="M351.591 353.43H348.701V356.32H351.591V353.43Z" fill="#F0F0F0"/>
<path d="M346.989 270.93H344.099V273.83H346.989V270.93Z" fill="#F0F0F0"/>
<path d="M346.989 275.78H344.099V278.68H346.989V275.78Z" fill="#F0F0F0"/>
<path d="M346.989 280.63H344.099V283.52H346.989V280.63Z" fill="#F0F0F0"/>
<path d="M346.989 285.49H344.099V288.39H346.989V285.49Z" fill="#F0F0F0"/>
<path d="M346.989 290.34H344.099V293.23H346.989V290.34Z" fill="#F0F0F0"/>
<path d="M346.989 295.19H344.099V298.08H346.989V295.19Z" fill="#F0F0F0"/>
<path d="M346.989 300.049H344.099V302.939H346.989V300.049Z" fill="#F0F0F0"/>
<path d="M346.989 304.9H344.099V307.79H346.989V304.9Z" fill="#F0F0F0"/>
<path d="M346.989 309.75H344.099V312.65H346.989V309.75Z" fill="#F0F0F0"/>
<path d="M346.989 314.61H344.099V317.51H346.989V314.61Z" fill="#F0F0F0"/>
<path d="M346.989 319.459H344.099V322.359H346.989V319.459Z" fill="#F0F0F0"/>
<path d="M346.989 324.31H344.099V327.2H346.989V324.31Z" fill="#F0F0F0"/>
<path d="M346.989 329.17H344.099V332.06H346.989V329.17Z" fill="#F0F0F0"/>
<path d="M346.989 334.02H344.099V336.91H346.989V334.02Z" fill="#F0F0F0"/>
<path d="M346.989 338.87H344.099V341.76H346.989V338.87Z" fill="#F0F0F0"/>
<path d="M346.989 343.72H344.099V346.61H346.989V343.72Z" fill="#F0F0F0"/>
<path d="M346.989 348.58H344.099V351.47H346.989V348.58Z" fill="#F0F0F0"/>
<path d="M346.989 353.43H344.099V356.32H346.989V353.43Z" fill="#F0F0F0"/>
<path d="M373.379 306.351H370.489V309.251H373.379V306.351Z" fill="#F0F0F0"/>
<path d="M373.379 311.201H370.489V314.091H373.379V311.201Z" fill="#F0F0F0"/>
<path d="M373.379 316.049H370.489V318.939H373.379V316.049Z" fill="#F0F0F0"/>
<path d="M373.379 320.91H370.489V323.8H373.379V320.91Z" fill="#F0F0F0"/>
<path d="M373.379 325.76H370.489V328.65H373.379V325.76Z" fill="#F0F0F0"/>
<path d="M373.379 330.61H370.489V333.5H373.379V330.61Z" fill="#F0F0F0"/>
<path d="M373.379 335.47H370.489V338.36H373.379V335.47Z" fill="#F0F0F0"/>
<path d="M373.379 340.319H370.489V343.209H373.379V340.319Z" fill="#F0F0F0"/>
<path d="M373.379 345.17H370.489V348.06H373.379V345.17Z" fill="#F0F0F0"/>
<path d="M373.379 350.02H370.489V352.91H373.379V350.02Z" fill="#F0F0F0"/>
<path d="M373.379 354.88H370.489V357.77H373.379V354.88Z" fill="#F0F0F0"/>
<path d="M373.379 359.73H370.489V362.62H373.379V359.73Z" fill="#F0F0F0"/>
<path d="M373.379 364.58H370.489V367.47H373.379V364.58Z" fill="#F0F0F0"/>
<path d="M368.791 306.351H365.901V309.251H368.791V306.351Z" fill="#F0F0F0"/>
<path d="M368.791 311.201H365.901V314.091H368.791V311.201Z" fill="#F0F0F0"/>
<path d="M368.791 316.049H365.901V318.939H368.791V316.049Z" fill="#F0F0F0"/>
<path d="M368.791 320.91H365.901V323.8H368.791V320.91Z" fill="#F0F0F0"/>
<path d="M368.791 325.76H365.901V328.65H368.791V325.76Z" fill="#F0F0F0"/>
<path d="M368.791 330.61H365.901V333.5H368.791V330.61Z" fill="#F0F0F0"/>
<path d="M368.791 335.47H365.901V338.36H368.791V335.47Z" fill="#F0F0F0"/>
<path d="M368.791 340.319H365.901V343.209H368.791V340.319Z" fill="#F0F0F0"/>
<path d="M368.791 345.17H365.901V348.06H368.791V345.17Z" fill="#F0F0F0"/>
<path d="M368.791 350.02H365.901V352.91H368.791V350.02Z" fill="#F0F0F0"/>
<path d="M368.791 354.88H365.901V357.77H368.791V354.88Z" fill="#F0F0F0"/>
<path d="M368.791 359.73H365.901V362.62H368.791V359.73Z" fill="#F0F0F0"/>
<path d="M368.791 364.58H365.901V367.47H368.791V364.58Z" fill="#F0F0F0"/>
<path d="M364.19 306.35H361.3V309.25H364.19V306.35Z" fill="#F0F0F0"/>
<path d="M364.19 311.2H361.3V314.09H364.19V311.2Z" fill="#F0F0F0"/>
<path d="M364.19 316.05H361.3V318.94H364.19V316.05Z" fill="#F0F0F0"/>
<path d="M364.19 320.91H361.3V323.8H364.19V320.91Z" fill="#F0F0F0"/>
<path d="M364.19 325.76H361.3V328.65H364.19V325.76Z" fill="#F0F0F0"/>
<path d="M364.19 330.61H361.3V333.5H364.19V330.61Z" fill="#F0F0F0"/>
<path d="M364.19 335.47H361.3V338.36H364.19V335.47Z" fill="#F0F0F0"/>
<path d="M364.19 340.32H361.3V343.21H364.19V340.32Z" fill="#F0F0F0"/>
<path d="M364.19 345.17H361.3V348.06H364.19V345.17Z" fill="#F0F0F0"/>
<path d="M364.19 350.02H361.3V352.91H364.19V350.02Z" fill="#F0F0F0"/>
<path d="M364.19 354.88H361.3V357.77H364.19V354.88Z" fill="#F0F0F0"/>
<path d="M364.19 359.73H361.3V362.62H364.19V359.73Z" fill="#F0F0F0"/>
<path d="M364.19 364.58H361.3V367.47H364.19V364.58Z" fill="#F0F0F0"/>
<path d="M364.19 369.44H361.3V372.33H364.19V369.44Z" fill="#F0F0F0"/>
<path d="M338.651 307.791H335.761V310.681H338.651V307.791Z" fill="#F0F0F0"/>
<path d="M338.651 312.65H335.761V315.54H338.651V312.65Z" fill="#F0F0F0"/>
<path d="M338.651 317.5H335.761V320.39H338.651V317.5Z" fill="#F0F0F0"/>
<path d="M338.651 322.35H335.761V325.24H338.651V322.35Z" fill="#F0F0F0"/>
<path d="M338.651 327.209H335.761V330.099H338.651V327.209Z" fill="#F0F0F0"/>
<path d="M338.651 332.06H335.761V334.95H338.651V332.06Z" fill="#F0F0F0"/>
<path d="M338.651 336.91H335.761V339.8H338.651V336.91Z" fill="#F0F0F0"/>
<path d="M338.651 341.77H335.761V344.67H338.651V341.77Z" fill="#F0F0F0"/>
<path d="M338.651 346.62H335.761V349.51H338.651V346.62Z" fill="#F0F0F0"/>
<path d="M338.651 351.47H335.761V354.36H338.651V351.47Z" fill="#F0F0F0"/>
<path d="M338.651 366.03H335.761V368.92H338.651V366.03Z" fill="#F0F0F0"/>
<path d="M334.06 307.79H331.16V310.68H334.06V307.79Z" fill="#F0F0F0"/>
<path d="M334.06 312.65H331.16V315.54H334.06V312.65Z" fill="#F0F0F0"/>
<path d="M334.06 317.5H331.16V320.39H334.06V317.5Z" fill="#F0F0F0"/>
<path d="M334.06 322.35H331.16V325.24H334.06V322.35Z" fill="#F0F0F0"/>
<path d="M334.06 327.21H331.16V330.1H334.06V327.21Z" fill="#F0F0F0"/>
<path d="M334.06 332.06H331.16V334.95H334.06V332.06Z" fill="#F0F0F0"/>
<path d="M334.06 336.91H331.16V339.8H334.06V336.91Z" fill="#F0F0F0"/>
<path d="M334.06 341.77H331.16V344.67H334.06V341.77Z" fill="#F0F0F0"/>
<path d="M334.06 346.62H331.16V349.51H334.06V346.62Z" fill="#F0F0F0"/>
<path d="M334.06 361.18H331.16V364.08H334.06V361.18Z" fill="#F0F0F0"/>
<path d="M334.06 366.03H331.16V368.92H334.06V366.03Z" fill="#F0F0F0"/>
<path d="M329.46 307.791H326.56V310.681H329.46V307.791Z" fill="#F0F0F0"/>
<path d="M329.46 312.65H326.56V315.54H329.46V312.65Z" fill="#F0F0F0"/>
<path d="M329.46 317.5H326.56V320.39H329.46V317.5Z" fill="#F0F0F0"/>
<path d="M329.46 322.35H326.56V325.24H329.46V322.35Z" fill="#F0F0F0"/>
<path d="M329.46 327.209H326.56V330.099H329.46V327.209Z" fill="#F0F0F0"/>
<path d="M329.46 332.06H326.56V334.95H329.46V332.06Z" fill="#F0F0F0"/>
<path d="M329.46 336.91H326.56V339.8H329.46V336.91Z" fill="#F0F0F0"/>
<path d="M329.46 341.77H326.56V344.67H329.46V341.77Z" fill="#F0F0F0"/>
<path d="M329.46 356.33H326.56V359.22H329.46V356.33Z" fill="#F0F0F0"/>
<path d="M329.46 361.18H326.56V364.08H329.46V361.18Z" fill="#F0F0F0"/>
<path d="M329.46 366.03H326.56V368.92H329.46V366.03Z" fill="#F0F0F0"/>
<path d="M286.71 234.061H283.82V236.951H286.71V234.061Z" fill="#F0F0F0"/>
<path d="M286.71 238.92H283.82V241.81H286.71V238.92Z" fill="#F0F0F0"/>
<path d="M286.71 243.77H283.82V246.66H286.71V243.77Z" fill="#F0F0F0"/>
<path d="M286.71 248.62H283.82V251.51H286.71V248.62Z" fill="#F0F0F0"/>
<path d="M286.71 253.47H283.82V256.36H286.71V253.47Z" fill="#F0F0F0"/>
<path d="M286.71 258.33H283.82V261.22H286.71V258.33Z" fill="#F0F0F0"/>
<path d="M286.71 263.18H283.82V266.07H286.71V263.18Z" fill="#F0F0F0"/>
<path d="M286.71 268.029H283.82V270.919H286.71V268.029Z" fill="#F0F0F0"/>
<path d="M286.71 272.89H283.82V275.78H286.71V272.89Z" fill="#F0F0F0"/>
<path d="M286.71 277.74H283.82V280.63H286.71V277.74Z" fill="#F0F0F0"/>
<path d="M286.71 282.59H283.82V285.48H286.71V282.59Z" fill="#F0F0F0"/>
<path d="M286.71 287.451H283.82V290.341H286.71V287.451Z" fill="#F0F0F0"/>
<path d="M286.71 292.299H283.82V295.189H286.71V292.299Z" fill="#F0F0F0"/>
<path d="M286.71 297.15H283.82V300.04H286.71V297.15Z" fill="#F0F0F0"/>
<path d="M286.71 302H283.82V304.9H286.71V302Z" fill="#F0F0F0"/>
<path d="M286.71 306.86H283.82V309.75H286.71V306.86Z" fill="#F0F0F0"/>
<path d="M286.71 311.709H283.82V314.599H286.71V311.709Z" fill="#F0F0F0"/>
<path d="M286.71 321.42H283.82V324.31H286.71V321.42Z" fill="#F0F0F0"/>
<path d="M286.71 326.27H283.82V329.16H286.71V326.27Z" fill="#F0F0F0"/>
<path d="M286.71 331.12H283.82V334.01H286.71V331.12Z" fill="#F0F0F0"/>
<path d="M286.71 335.98H283.82V338.87H286.71V335.98Z" fill="#F0F0F0"/>
<path d="M286.71 340.83H283.82V343.72H286.71V340.83Z" fill="#F0F0F0"/>
<path d="M282.11 234.06H279.22V236.95H282.11V234.06Z" fill="#F0F0F0"/>
<path d="M282.11 238.92H279.22V241.81H282.11V238.92Z" fill="#F0F0F0"/>
<path d="M282.11 243.77H279.22V246.66H282.11V243.77Z" fill="#F0F0F0"/>
<path d="M282.11 248.62H279.22V251.51H282.11V248.62Z" fill="#F0F0F0"/>
<path d="M282.11 253.47H279.22V256.36H282.11V253.47Z" fill="#F0F0F0"/>
<path d="M282.11 258.33H279.22V261.22H282.11V258.33Z" fill="#F0F0F0"/>
<path d="M282.11 263.18H279.22V266.07H282.11V263.18Z" fill="#F0F0F0"/>
<path d="M282.11 268.03H279.22V270.92H282.11V268.03Z" fill="#F0F0F0"/>
<path d="M282.11 272.89H279.22V275.78H282.11V272.89Z" fill="#F0F0F0"/>
<path d="M282.11 277.74H279.22V280.63H282.11V277.74Z" fill="#F0F0F0"/>
<path d="M282.11 282.59H279.22V285.48H282.11V282.59Z" fill="#F0F0F0"/>
<path d="M282.11 287.451H279.22V290.341H282.11V287.451Z" fill="#F0F0F0"/>
<path d="M282.11 292.299H279.22V295.189H282.11V292.299Z" fill="#F0F0F0"/>
<path d="M282.11 297.149H279.22V300.039H282.11V297.149Z" fill="#F0F0F0"/>
<path d="M282.11 302H279.22V304.9H282.11V302Z" fill="#F0F0F0"/>
<path d="M282.11 306.86H279.22V309.75H282.11V306.86Z" fill="#F0F0F0"/>
<path d="M282.11 335.98H279.22V338.87H282.11V335.98Z" fill="#F0F0F0"/>
<path d="M282.11 340.83H279.22V343.72H282.11V340.83Z" fill="#F0F0F0"/>
<path d="M277.52 234.06H274.63V236.95H277.52V234.06Z" fill="#F0F0F0"/>
<path d="M277.52 238.92H274.63V241.81H277.52V238.92Z" fill="#F0F0F0"/>
<path d="M277.52 243.77H274.63V246.66H277.52V243.77Z" fill="#F0F0F0"/>
<path d="M277.52 248.62H274.63V251.51H277.52V248.62Z" fill="#F0F0F0"/>
<path d="M277.52 253.47H274.63V256.36H277.52V253.47Z" fill="#F0F0F0"/>
<path d="M277.52 258.33H274.63V261.22H277.52V258.33Z" fill="#F0F0F0"/>
<path d="M277.52 263.18H274.63V266.07H277.52V263.18Z" fill="#F0F0F0"/>
<path d="M277.52 268.03H274.63V270.92H277.52V268.03Z" fill="#F0F0F0"/>
<path d="M277.52 272.89H274.63V275.78H277.52V272.89Z" fill="#F0F0F0"/>
<path d="M277.52 277.74H274.63V280.63H277.52V277.74Z" fill="#F0F0F0"/>
<path d="M277.52 282.59H274.63V285.48H277.52V282.59Z" fill="#F0F0F0"/>
<path d="M277.52 287.45H274.63V290.34H277.52V287.45Z" fill="#F0F0F0"/>
<path d="M277.52 292.3H274.63V295.19H277.52V292.3Z" fill="#F0F0F0"/>
<path d="M277.52 297.15H274.63V300.04H277.52V297.15Z" fill="#F0F0F0"/>
<path d="M277.52 302H274.63V304.9H277.52V302Z" fill="#F0F0F0"/>
<path d="M277.52 306.86H274.63V309.75H277.52V306.86Z" fill="#F0F0F0"/>
<path d="M277.52 316.56H274.63V319.45H277.52V316.56Z" fill="#F0F0F0"/>
<path d="M277.52 321.42H274.63V324.31H277.52V321.42Z" fill="#F0F0F0"/>
<path d="M277.52 326.27H274.63V329.16H277.52V326.27Z" fill="#F0F0F0"/>
<path d="M277.52 331.12H274.63V334.01H277.52V331.12Z" fill="#F0F0F0"/>
<path d="M277.52 340.83H274.63V343.72H277.52V340.83Z" fill="#F0F0F0"/>
<path d="M303.411 295.19H300.511V298.08H303.411V295.19Z" fill="#F0F0F0"/>
<path d="M303.411 300.049H300.511V302.939H303.411V300.049Z" fill="#F0F0F0"/>
<path d="M303.411 304.899H300.511V307.789H303.411V304.899Z" fill="#F0F0F0"/>
<path d="M303.411 309.75H300.511V312.65H303.411V309.75Z" fill="#F0F0F0"/>
<path d="M303.411 314.61H300.511V317.51H303.411V314.61Z" fill="#F0F0F0"/>
<path d="M303.411 319.459H300.511V322.359H303.411V319.459Z" fill="#F0F0F0"/>
<path d="M303.411 324.31H300.511V327.2H303.411V324.31Z" fill="#F0F0F0"/>
<path d="M303.411 334.02H300.511V336.91H303.411V334.02Z" fill="#F0F0F0"/>
<path d="M303.411 338.87H300.511V341.76H303.411V338.87Z" fill="#F0F0F0"/>
<path d="M303.411 343.72H300.511V346.61H303.411V343.72Z" fill="#F0F0F0"/>
<path d="M303.411 348.58H300.511V351.47H303.411V348.58Z" fill="#F0F0F0"/>
<path d="M303.411 353.431H300.511V356.321H303.411V353.431Z" fill="#F0F0F0"/>
<path d="M303.411 358.28H300.511V361.17H303.411V358.28Z" fill="#F0F0F0"/>
<path d="M303.411 363.14H300.511V366.03H303.411V363.14Z" fill="#F0F0F0"/>
<path d="M303.411 367.99H300.511V370.88H303.411V367.99Z" fill="#F0F0F0"/>
<path d="M298.8 295.19H295.91V298.08H298.8V295.19Z" fill="#F0F0F0"/>
<path d="M298.8 300.05H295.91V302.94H298.8V300.05Z" fill="#F0F0F0"/>
<path d="M298.8 304.9H295.91V307.79H298.8V304.9Z" fill="#F0F0F0"/>
<path d="M298.8 309.75H295.91V312.65H298.8V309.75Z" fill="#F0F0F0"/>
<path d="M298.8 314.61H295.91V317.51H298.8V314.61Z" fill="#F0F0F0"/>
<path d="M298.8 319.46H295.91V322.36H298.8V319.46Z" fill="#F0F0F0"/>
<path d="M298.8 334.02H295.91V336.91H298.8V334.02Z" fill="#F0F0F0"/>
<path d="M298.8 338.87H295.91V341.76H298.8V338.87Z" fill="#F0F0F0"/>
<path d="M298.8 343.72H295.91V346.61H298.8V343.72Z" fill="#F0F0F0"/>
<path d="M298.8 348.58H295.91V351.47H298.8V348.58Z" fill="#F0F0F0"/>
<path d="M298.8 353.43H295.91V356.32H298.8V353.43Z" fill="#F0F0F0"/>
<path d="M298.8 358.28H295.91V361.17H298.8V358.28Z" fill="#F0F0F0"/>
<path d="M298.8 363.14H295.91V366.03H298.8V363.14Z" fill="#F0F0F0"/>
<path d="M298.8 367.99H295.91V370.88H298.8V367.99Z" fill="#F0F0F0"/>
<path d="M294.21 295.19H291.31V298.08H294.21V295.19Z" fill="#F0F0F0"/>
<path d="M294.21 300.049H291.31V302.939H294.21V300.049Z" fill="#F0F0F0"/>
<path d="M294.21 304.899H291.31V307.789H294.21V304.899Z" fill="#F0F0F0"/>
<path d="M294.21 309.75H291.31V312.65H294.21V309.75Z" fill="#F0F0F0"/>
<path d="M294.21 314.61H291.31V317.51H294.21V314.61Z" fill="#F0F0F0"/>
<path d="M294.21 319.459H291.31V322.359H294.21V319.459Z" fill="#F0F0F0"/>
<path d="M294.21 329.17H291.31V332.06H294.21V329.17Z" fill="#F0F0F0"/>
<path d="M294.21 334.02H291.31V336.91H294.21V334.02Z" fill="#F0F0F0"/>
<path d="M294.21 338.87H291.31V341.76H294.21V338.87Z" fill="#F0F0F0"/>
<path d="M294.21 343.72H291.31V346.61H294.21V343.72Z" fill="#F0F0F0"/>
<path d="M294.21 348.58H291.31V351.47H294.21V348.58Z" fill="#F0F0F0"/>
<path d="M294.21 353.431H291.31V356.321H294.21V353.431Z" fill="#F0F0F0"/>
<path d="M294.21 358.28H291.31V361.17H294.21V358.28Z" fill="#F0F0F0"/>
<path d="M294.21 363.14H291.31V366.03H294.21V363.14Z" fill="#F0F0F0"/>
<path d="M294.21 367.99H291.31V370.88H294.21V367.99Z" fill="#F0F0F0"/>
<path d="M197.311 268.03H194.421V270.92H197.311V268.03Z" fill="#F0F0F0"/>
<path d="M197.311 272.89H194.421V275.78H197.311V272.89Z" fill="#F0F0F0"/>
<path d="M197.309 277.74H194.419V280.63H197.309V277.74Z" fill="#F0F0F0"/>
<path d="M197.311 282.59H194.421V285.48H197.311V282.59Z" fill="#F0F0F0"/>
<path d="M197.311 287.45H194.421V290.34H197.311V287.45Z" fill="#F0F0F0"/>
<path d="M197.311 292.3H194.421V295.19H197.311V292.3Z" fill="#F0F0F0"/>
<path d="M197.311 297.15H194.421V300.04H197.311V297.15Z" fill="#F0F0F0"/>
<path d="M197.311 302H194.421V304.9H197.311V302Z" fill="#F0F0F0"/>
<path d="M197.311 306.86H194.421V309.75H197.311V306.86Z" fill="#F0F0F0"/>
<path d="M197.311 311.71H194.421V314.6H197.311V311.71Z" fill="#F0F0F0"/>
<path d="M197.311 316.56H194.421V319.45H197.311V316.56Z" fill="#F0F0F0"/>
<path d="M197.311 321.42H194.421V324.31H197.311V321.42Z" fill="#F0F0F0"/>
<path d="M197.311 326.27H194.421V329.16H197.311V326.27Z" fill="#F0F0F0"/>
<path d="M197.311 335.98H194.421V338.87H197.311V335.98Z" fill="#F0F0F0"/>
<path d="M197.311 340.83H194.421V343.72H197.311V340.83Z" fill="#F0F0F0"/>
<path d="M197.311 345.68H194.421V348.57H197.311V345.68Z" fill="#F0F0F0"/>
<path d="M197.311 350.54H194.421V353.43H197.311V350.54Z" fill="#F0F0F0"/>
<path d="M197.309 360.24H194.419V363.14H197.309V360.24Z" fill="#F0F0F0"/>
<path d="M197.311 365.1H194.421V367.99H197.311V365.1Z" fill="#F0F0F0"/>
<path d="M197.311 369.95H194.421V372.84H197.311V369.95Z" fill="#F0F0F0"/>
<path d="M192.71 268.029H189.82V270.919H192.71V268.029Z" fill="#F0F0F0"/>
<path d="M192.71 272.89H189.82V275.78H192.71V272.89Z" fill="#F0F0F0"/>
<path d="M192.71 277.74H189.82V280.63H192.71V277.74Z" fill="#F0F0F0"/>
<path d="M192.71 282.59H189.82V285.48H192.71V282.59Z" fill="#F0F0F0"/>
<path d="M192.71 287.451H189.82V290.341H192.71V287.451Z" fill="#F0F0F0"/>
<path d="M192.71 292.299H189.82V295.189H192.71V292.299Z" fill="#F0F0F0"/>
<path d="M192.71 297.15H189.82V300.04H192.71V297.15Z" fill="#F0F0F0"/>
<path d="M192.71 302H189.82V304.9H192.71V302Z" fill="#F0F0F0"/>
<path d="M192.71 306.86H189.82V309.75H192.71V306.86Z" fill="#F0F0F0"/>
<path d="M192.71 311.709H189.82V314.599H192.71V311.709Z" fill="#F0F0F0"/>
<path d="M192.71 316.561H189.82V319.451H192.71V316.561Z" fill="#F0F0F0"/>
<path d="M192.71 321.42H189.82V324.31H192.71V321.42Z" fill="#F0F0F0"/>
<path d="M192.71 326.27H189.82V329.16H192.71V326.27Z" fill="#F0F0F0"/>
<path d="M192.71 340.83H189.82V343.72H192.71V340.83Z" fill="#F0F0F0"/>
<path d="M192.71 345.68H189.82V348.57H192.71V345.68Z" fill="#F0F0F0"/>
<path d="M192.71 355.39H189.82V358.28H192.71V355.39Z" fill="#F0F0F0"/>
<path d="M192.71 360.24H189.82V363.14H192.71V360.24Z" fill="#F0F0F0"/>
<path d="M192.71 365.1H189.82V367.99H192.71V365.1Z" fill="#F0F0F0"/>
<path d="M192.71 369.951H189.82V372.841H192.71V369.951Z" fill="#F0F0F0"/>
<path d="M188.12 268.029H185.23V270.919H188.12V268.029Z" fill="#F0F0F0"/>
<path d="M188.12 272.89H185.23V275.78H188.12V272.89Z" fill="#F0F0F0"/>
<path d="M188.12 277.74H185.23V280.63H188.12V277.74Z" fill="#F0F0F0"/>
<path d="M188.12 282.59H185.23V285.48H188.12V282.59Z" fill="#F0F0F0"/>
<path d="M188.12 287.451H185.23V290.341H188.12V287.451Z" fill="#F0F0F0"/>
<path d="M188.12 292.299H185.23V295.189H188.12V292.299Z" fill="#F0F0F0"/>
<path d="M188.12 297.15H185.23V300.04H188.12V297.15Z" fill="#F0F0F0"/>
<path d="M188.12 302H185.23V304.9H188.12V302Z" fill="#F0F0F0"/>
<path d="M188.12 306.86H185.23V309.75H188.12V306.86Z" fill="#F0F0F0"/>
<path d="M188.12 311.709H185.23V314.599H188.12V311.709Z" fill="#F0F0F0"/>
<path d="M188.12 316.561H185.23V319.451H188.12V316.561Z" fill="#F0F0F0"/>
<path d="M188.12 321.42H185.23V324.31H188.12V321.42Z" fill="#F0F0F0"/>
<path d="M188.12 326.27H185.23V329.16H188.12V326.27Z" fill="#F0F0F0"/>
<path d="M188.12 331.12H185.23V334.01H188.12V331.12Z" fill="#F0F0F0"/>
<path d="M188.12 340.83H185.23V343.72H188.12V340.83Z" fill="#F0F0F0"/>
<path d="M188.12 350.541H185.23V353.431H188.12V350.541Z" fill="#F0F0F0"/>
<path d="M188.12 355.39H185.23V358.28H188.12V355.39Z" fill="#F0F0F0"/>
<path d="M188.12 360.24H185.23V363.14H188.12V360.24Z" fill="#F0F0F0"/>
<path d="M188.12 365.1H185.23V367.99H188.12V365.1Z" fill="#F0F0F0"/>
<path d="M188.12 369.951H185.23V372.841H188.12V369.951Z" fill="#F0F0F0"/>
<path d="M216.051 295.701H213.151V298.591H216.051V295.701Z" fill="#F0F0F0"/>
<path d="M216.051 300.56H213.151V303.45H216.051V300.56Z" fill="#F0F0F0"/>
<path d="M216.051 305.41H213.151V308.3H216.051V305.41Z" fill="#F0F0F0"/>
<path d="M216.051 310.26H213.151V313.15H216.051V310.26Z" fill="#F0F0F0"/>
<path d="M216.051 315.12H213.151V318.01H216.051V315.12Z" fill="#F0F0F0"/>
<path d="M216.051 319.97H213.151V322.86H216.051V319.97Z" fill="#F0F0F0"/>
<path d="M216.051 334.53H213.151V337.42H216.051V334.53Z" fill="#F0F0F0"/>
<path d="M216.051 339.38H213.151V342.27H216.051V339.38Z" fill="#F0F0F0"/>
<path d="M216.051 344.24H213.151V347.13H216.051V344.24Z" fill="#F0F0F0"/>
<path d="M216.051 349.09H213.151V351.99H216.051V349.09Z" fill="#F0F0F0"/>
<path d="M216.051 353.94H213.151V356.83H216.051V353.94Z" fill="#F0F0F0"/>
<path d="M216.051 358.791H213.151V361.681H216.051V358.791Z" fill="#F0F0F0"/>
<path d="M216.051 363.65H213.151V366.54H216.051V363.65Z" fill="#F0F0F0"/>
<path d="M211.45 295.701H208.56V298.591H211.45V295.701Z" fill="#F0F0F0"/>
<path d="M211.45 300.56H208.56V303.45H211.45V300.56Z" fill="#F0F0F0"/>
<path d="M211.45 305.41H208.56V308.3H211.45V305.41Z" fill="#F0F0F0"/>
<path d="M211.45 310.26H208.56V313.15H211.45V310.26Z" fill="#F0F0F0"/>
<path d="M211.45 315.12H208.56V318.01H211.45V315.12Z" fill="#F0F0F0"/>
<path d="M211.45 319.97H208.56V322.86H211.45V319.97Z" fill="#F0F0F0"/>
<path d="M211.45 334.53H208.56V337.42H211.45V334.53Z" fill="#F0F0F0"/>
<path d="M211.45 339.38H208.56V342.27H211.45V339.38Z" fill="#F0F0F0"/>
<path d="M211.45 344.24H208.56V347.13H211.45V344.24Z" fill="#F0F0F0"/>
<path d="M211.45 349.09H208.56V351.99H211.45V349.09Z" fill="#F0F0F0"/>
<path d="M211.45 353.94H208.56V356.83H211.45V353.94Z" fill="#F0F0F0"/>
<path d="M211.45 358.791H208.56V361.681H211.45V358.791Z" fill="#F0F0F0"/>
<path d="M211.45 368.5H208.56V371.39H211.45V368.5Z" fill="#F0F0F0"/>
<path d="M58.7005 274.33H55.8105V277.22H58.7005V274.33Z" fill="#F0F0F0"/>
<path d="M58.7005 279.19H55.8105V282.08H58.7005V279.19Z" fill="#F0F0F0"/>
<path d="M58.7005 284.04H55.8105V286.93H58.7005V284.04Z" fill="#F0F0F0"/>
<path d="M58.7005 288.89H55.8105V291.78H58.7005V288.89Z" fill="#F0F0F0"/>
<path d="M58.7005 293.75H55.8105V296.64H58.7005V293.75Z" fill="#F0F0F0"/>
<path d="M58.7005 298.6H55.8105V301.49H58.7005V298.6Z" fill="#F0F0F0"/>
<path d="M58.7005 303.451H55.8105V306.341H58.7005V303.451Z" fill="#F0F0F0"/>
<path d="M58.7005 308.31H55.8105V311.2H58.7005V308.31Z" fill="#F0F0F0"/>
<path d="M58.7005 313.16H55.8105V316.05H58.7005V313.16Z" fill="#F0F0F0"/>
<path d="M58.7005 318.01H55.8105V320.9H58.7005V318.01Z" fill="#F0F0F0"/>
<path d="M58.7005 322.86H55.8105V325.75H58.7005V322.86Z" fill="#F0F0F0"/>
<path d="M58.7005 332.569H55.8105V335.459H58.7005V332.569Z" fill="#F0F0F0"/>
<path d="M58.7005 337.42H55.8105V340.31H58.7005V337.42Z" fill="#F0F0F0"/>
<path d="M58.7005 342.28H55.8105V345.18H58.7005V342.28Z" fill="#F0F0F0"/>
<path d="M58.7005 347.13H55.8105V350.02H58.7005V347.13Z" fill="#F0F0F0"/>
<path d="M58.7005 351.979H55.8105V354.869H58.7005V351.979Z" fill="#F0F0F0"/>
<path d="M58.7005 356.84H55.8105V359.73H58.7005V356.84Z" fill="#F0F0F0"/>
<path d="M58.7005 361.69H55.8105V364.58H58.7005V361.69Z" fill="#F0F0F0"/>
<path d="M58.7005 366.54H55.8105V369.43H58.7005V366.54Z" fill="#F0F0F0"/>
<path d="M54.11 274.33H51.21V277.22H54.11V274.33Z" fill="#F0F0F0"/>
<path d="M54.11 279.19H51.21V282.08H54.11V279.19Z" fill="#F0F0F0"/>
<path d="M54.11 284.04H51.21V286.93H54.11V284.04Z" fill="#F0F0F0"/>
<path d="M54.11 288.89H51.21V291.78H54.11V288.89Z" fill="#F0F0F0"/>
<path d="M54.11 293.75H51.21V296.64H54.11V293.75Z" fill="#F0F0F0"/>
<path d="M54.11 298.6H51.21V301.49H54.11V298.6Z" fill="#F0F0F0"/>
<path d="M54.11 303.45H51.21V306.34H54.11V303.45Z" fill="#F0F0F0"/>
<path d="M54.11 308.31H51.21V311.2H54.11V308.31Z" fill="#F0F0F0"/>
<path d="M54.11 313.16H51.21V316.05H54.11V313.16Z" fill="#F0F0F0"/>
<path d="M54.11 318.01H51.21V320.9H54.11V318.01Z" fill="#F0F0F0"/>
<path d="M54.11 322.86H51.21V325.75H54.11V322.86Z" fill="#F0F0F0"/>
<path d="M54.11 327.72H51.21V330.61H54.11V327.72Z" fill="#F0F0F0"/>
<path d="M54.11 332.57H51.21V335.46H54.11V332.57Z" fill="#F0F0F0"/>
<path d="M54.11 337.42H51.21V340.31H54.11V337.42Z" fill="#F0F0F0"/>
<path d="M54.11 342.28H51.21V345.18H54.11V342.28Z" fill="#F0F0F0"/>
<path d="M54.11 347.13H51.21V350.02H54.11V347.13Z" fill="#F0F0F0"/>
<path d="M54.11 351.98H51.21V354.87H54.11V351.98Z" fill="#F0F0F0"/>
<path d="M54.11 356.84H51.21V359.73H54.11V356.84Z" fill="#F0F0F0"/>
<path d="M54.11 361.69H51.21V364.58H54.11V361.69Z" fill="#F0F0F0"/>
<path d="M54.11 366.54H51.21V369.43H54.11V366.54Z" fill="#F0F0F0"/>
<path d="M81.35 293.24H78.46V296.13H81.35V293.24Z" fill="#F0F0F0"/>
<path d="M81.35 298.09H78.46V300.98H81.35V298.09Z" fill="#F0F0F0"/>
<path d="M81.35 302.94H78.46V305.83H81.35V302.94Z" fill="#F0F0F0"/>
<path d="M81.35 307.79H78.46V310.68H81.35V307.79Z" fill="#F0F0F0"/>
<path d="M81.35 312.65H78.46V315.54H81.35V312.65Z" fill="#F0F0F0"/>
<path d="M81.35 317.5H78.46V320.39H81.35V317.5Z" fill="#F0F0F0"/>
<path d="M81.35 322.35H78.46V325.24H81.35V322.35Z" fill="#F0F0F0"/>
<path d="M81.35 327.21H78.46V330.1H81.35V327.21Z" fill="#F0F0F0"/>
<path d="M81.35 332.06H78.46V334.95H81.35V332.06Z" fill="#F0F0F0"/>
<path d="M81.35 336.91H78.46V339.8H81.35V336.91Z" fill="#F0F0F0"/>
<path d="M76.7504 293.24H73.8604V296.13H76.7504V293.24Z" fill="#F0F0F0"/>
<path d="M76.7504 298.09H73.8604V300.98H76.7504V298.09Z" fill="#F0F0F0"/>
<path d="M76.7504 302.94H73.8604V305.83H76.7504V302.94Z" fill="#F0F0F0"/>
<path d="M76.7504 307.791H73.8604V310.681H76.7504V307.791Z" fill="#F0F0F0"/>
<path d="M76.7504 312.65H73.8604V315.54H76.7504V312.65Z" fill="#F0F0F0"/>
<path d="M76.7504 317.5H73.8604V320.39H76.7504V317.5Z" fill="#F0F0F0"/>
<path d="M76.7504 322.35H73.8604V325.24H76.7504V322.35Z" fill="#F0F0F0"/>
<path d="M76.7504 327.209H73.8604V330.099H76.7504V327.209Z" fill="#F0F0F0"/>
<path d="M76.7504 332.06H73.8604V334.95H76.7504V332.06Z" fill="#F0F0F0"/>
<path d="M125 151.77C125 149.587 124.133 147.494 122.59 145.951C121.046 144.407 118.953 143.54 116.77 143.54C115.968 143.539 115.17 143.654 114.4 143.88C114.775 141.399 114.609 138.866 113.913 136.455C113.217 134.044 112.008 131.812 110.369 129.912C108.729 128.012 106.698 126.489 104.415 125.448C102.131 124.407 99.6498 123.872 97.1404 123.88C96.0635 123.883 94.9891 123.984 93.9303 124.18C92.2094 121.357 89.6174 119.169 86.545 117.947C83.4726 116.725 80.0862 116.535 76.8961 117.405C73.7061 118.275 70.8852 120.158 68.8587 122.771C66.8321 125.383 65.7096 128.584 65.6604 131.89H65.4104C61.6841 131.89 58.1104 133.37 55.4755 136.005C52.8406 138.64 51.3604 142.214 51.3604 145.94C51.3604 149.666 52.8406 153.24 55.4755 155.875C58.1104 158.51 61.6841 159.99 65.4104 159.99H117C119.14 159.928 121.172 159.035 122.665 157.501C124.159 155.966 124.996 153.911 125 151.77Z" fill="#F0F0F0"/>
<path d="M354.3 130.8C354.3 129.405 353.746 128.067 352.76 127.08C351.773 126.094 350.435 125.54 349.04 125.54C348.528 125.54 348.019 125.617 347.53 125.77C347.611 125.233 347.651 124.692 347.65 124.15C347.653 122.686 347.367 121.237 346.809 119.884C346.251 118.531 345.431 117.302 344.397 116.267C343.364 115.231 342.136 114.409 340.784 113.849C339.432 113.288 337.983 113 336.52 113C335.829 112.997 335.139 113.06 334.46 113.19C333.355 111.405 331.703 110.026 329.75 109.258C327.796 108.49 325.647 108.373 323.623 108.927C321.598 109.48 319.807 110.673 318.516 112.328C317.225 113.983 316.504 116.011 316.46 118.11H316.29C314.038 118.294 311.937 119.319 310.406 120.981C308.875 122.643 308.024 124.82 308.024 127.08C308.024 129.339 308.875 131.517 310.406 133.178C311.937 134.84 314.038 135.865 316.29 136.05H349.23C350.591 136.003 351.881 135.429 352.827 134.45C353.773 133.47 354.301 132.161 354.3 130.8Z" fill="#F0F0F0"/>
<path d="M211.72 119.67C211.72 118.816 211.381 117.997 210.777 117.393C210.173 116.789 209.354 116.45 208.5 116.45C208.185 116.449 207.871 116.497 207.57 116.59C207.619 116.259 207.642 115.925 207.64 115.59C207.64 113.781 206.922 112.047 205.643 110.768C204.364 109.489 202.629 108.77 200.82 108.77C200.401 108.771 199.983 108.807 199.57 108.88C198.883 107.799 197.869 106.967 196.675 106.504C195.482 106.041 194.171 105.972 192.935 106.307C191.7 106.643 190.604 107.364 189.808 108.367C189.011 109.37 188.557 110.601 188.51 111.88H188.41C186.951 111.88 185.553 112.459 184.521 113.491C183.49 114.522 182.91 115.921 182.91 117.38C182.91 118.839 183.49 120.238 184.521 121.269C185.553 122.301 186.951 122.88 188.41 122.88H208.59C209.426 122.854 210.219 122.505 210.803 121.907C211.387 121.308 211.715 120.506 211.72 119.67Z" fill="#F0F0F0"/>
<path d="M188 427.56C295.083 427.56 381.89 422.492 381.89 416.24C381.89 409.989 295.083 404.92 188 404.92C80.9179 404.92 -5.88965 409.989 -5.88965 416.24C-5.88965 422.492 80.9179 427.56 188 427.56Z" fill="#F5F5F5"/>
<path d="M345.968 208.26L321.988 209.74L328.198 213.24L196.428 280.87L161.108 267.91L54.2278 321.3L46.9678 324.93L55.3778 329.67L64.1878 325.27L161.598 276.61L196.948 289.59L336.568 217.94L341.548 220.74L345.968 208.26Z" fill="#59459C"/>
<path d="M341.987 273.49L317.997 274.97L323.607 278.12L163.217 357.92L155.907 361.56L164.347 366.3L173.117 361.94L332.037 282.86L337.557 285.97L341.987 273.49Z" fill="#59459C"/>
<path d="M243.437 179.47L219.457 180.95L225.067 184.1L64.6674 263.9L57.3574 267.54L65.7974 272.28L74.5674 267.92L233.487 188.84L239.017 191.95L243.437 179.47Z" fill="#59459C"/>
<path opacity="0.3" d="M345.968 208.26L321.988 209.74L328.198 213.24L196.428 280.87L161.108 267.91L54.2278 321.3L46.9678 324.93L55.3778 329.67L64.1878 325.27L161.598 276.61L196.948 289.59L336.568 217.94L341.548 220.74L345.968 208.26Z" fill="white"/>
<path opacity="0.7" d="M341.987 273.49L317.997 274.97L323.607 278.12L163.217 357.92L155.907 361.56L164.347 366.3L173.117 361.94L332.037 282.86L337.557 285.97L341.987 273.49Z" fill="white"/>
<path opacity="0.5" d="M243.437 179.47L219.457 180.95L225.067 184.1L64.6674 263.9L57.3574 267.54L65.7974 272.28L74.5674 267.92L233.487 188.84L239.017 191.95L243.437 179.47Z" fill="white"/>
<path d="M33.9795 416.909H326.169L316.569 406.409L296.389 401.459L288.479 388.319L274.239 370.899H256.829L238.409 393.509L212.549 396.759L174.439 406.409L150.939 411.339L141.889 407.539L85.4095 412.219L67.4695 409.199L33.9795 416.909Z" fill="#263238"/>
<path opacity="0.7" d="M33.9795 416.909H326.169L316.569 406.409L296.389 401.459L288.479 388.319L274.239 370.899H256.829L238.409 393.509L212.549 396.759L174.439 406.409L150.939 411.339L141.889 407.539L85.4095 412.219L67.4695 409.199L33.9795 416.909Z" fill="white"/>
<path opacity="0.2" d="M67.4695 409.199L62.5395 414.209L82.5795 416.239L87.8595 414.209H129.259L140.339 408.109L151.749 412.419L149.749 415.259L203.989 412.419L200.209 403.939L212.549 396.759L226.789 401.419L230.539 407.409L237.919 410.779L238.409 393.509L256.829 370.899L260.529 380.979L272.739 377.749L260.529 391.009L252.429 394.189L250.059 409.409L270.629 402.399L289.349 406.559L296.389 401.459L292.779 409.409L275.109 412.419L269.219 416.909H33.9795L67.4695 409.199Z" fill="black"/>
<path d="M226.53 155.659H215.34L210.93 172.279L226.53 155.659Z" fill="#59459C"/>
<path d="M249.97 149.719V108.729C249.97 102.792 245.157 97.9795 239.22 97.9795H198.23C192.293 97.9795 187.48 102.792 187.48 108.729V149.719C187.48 155.657 192.293 160.469 198.23 160.469H239.22C245.157 160.469 249.97 155.657 249.97 149.719Z" fill="#59459C"/>
<path opacity="0.8" d="M239.23 97.9995H198.23C196.818 97.9982 195.421 98.275 194.116 98.8142C192.812 99.3533 191.627 100.144 190.629 101.142C189.63 102.139 188.838 103.324 188.298 104.627C187.758 105.931 187.479 107.328 187.479 108.74V149.74C187.479 152.591 188.612 155.325 190.628 157.341C192.644 159.357 195.378 160.49 198.23 160.49H214.059L210.92 172.31L221.999 160.46H239.209C240.625 160.465 242.027 160.191 243.336 159.653C244.644 159.115 245.834 158.324 246.837 157.325C247.839 156.326 248.635 155.139 249.177 153.833C249.72 152.526 250 151.125 249.999 149.71V108.71C249.989 105.862 248.849 103.135 246.83 101.127C244.811 99.119 242.077 97.9942 239.23 97.9995Z" fill="white"/>
<path d="M213.49 144.569H198.53V150.279H213.49V144.569Z" fill="#263238"/>
<path opacity="0.4" d="M213.49 144.569H198.53V150.279H213.49V144.569Z" fill="white"/>
<path opacity="0.2" d="M212.529 143.39L209.729 150.28H215.959L212.529 143.39Z" fill="black"/>
<path d="M238.94 141.609H224.67V150.289H238.94V141.609Z" fill="#263238"/>
<path opacity="0.4" d="M238.94 141.609H224.67V150.289H238.94V141.609Z" fill="white"/>
<path opacity="0.2" d="M225.44 141.609L229.61 150.279H221.8L223.28 141.609H225.44Z" fill="black"/>
<path d="M218.73 109.78L209.24 113.84L218.73 117.78V109.78Z" fill="#59459C"/>
<path d="M219.099 108.78H218.359V139.53H219.099V108.78Z" fill="#263238"/>
<path opacity="0.2" d="M219.099 108.78H218.359V139.53H219.099V108.78Z" fill="white"/>
<path d="M219.389 108.81C219.389 108.94 219.351 109.068 219.278 109.177C219.206 109.285 219.103 109.37 218.982 109.42C218.861 109.47 218.729 109.483 218.601 109.457C218.473 109.432 218.355 109.369 218.263 109.277C218.17 109.184 218.107 109.067 218.082 108.939C218.057 108.811 218.07 108.678 218.12 108.557C218.17 108.437 218.254 108.334 218.363 108.261C218.471 108.189 218.599 108.15 218.729 108.15C218.904 108.15 219.072 108.219 219.196 108.343C219.32 108.467 219.389 108.635 219.389 108.81Z" fill="#263238"/>
<path d="M225.451 136.86H212.021V150.29H225.451V136.86Z" fill="#263238"/>
<path opacity="0.4" d="M225.451 136.86H212.021V150.29H225.451V136.86Z" fill="white"/>
<path d="M210.18 210.77C210.18 210.77 228.72 209.67 232.77 208.53C236.82 207.39 255 198.61 255 198.61L257.59 203.86C257.59 203.86 237.77 216.55 233 218.17C228.23 219.79 207.55 223.86 207.55 223.86L210.18 210.77Z" fill="#263238"/>
<path opacity="0.4" d="M257.549 203.86C257.549 203.86 237.769 216.55 232.999 218.17C229.999 219.17 220.509 221.23 213.999 222.56C210.279 223.32 207.539 223.86 207.539 223.86L209.309 215.01L210.149 210.77C210.149 210.77 228.689 209.67 232.739 208.53C236.789 207.39 254.999 198.61 254.999 198.61L257.549 203.86Z" fill="white"/>
<path opacity="0.2" d="M213.999 222.56C210.279 223.32 207.539 223.86 207.539 223.86L209.759 217.95C210.735 218.401 211.611 219.041 212.339 219.832C213.067 220.623 213.631 221.55 213.999 222.56Z" fill="black"/>
<path d="M203.329 197.37C201.329 200.62 196.609 202.56 194.449 204.54C192.289 206.52 193.289 213.35 179.209 211.32C165.129 209.29 159.859 212.12 159.859 212.12C159.859 212.12 159.069 209.06 165.259 206.53C165.259 206.53 160.479 207.46 159.109 209.95C159.109 209.95 158.799 202.26 165.109 199.95C171.419 197.64 170.519 187.84 174.999 182.7C179.479 177.56 191.079 174.81 197.809 179.61C204.539 184.41 205.939 193.15 203.329 197.37Z" fill="#263238"/>
<path d="M159.109 273C159.109 273 193.899 273.23 201.159 269.64C208.419 266.05 207.529 230.64 207.529 230.64L176.619 240.5C176.619 240.5 175.729 258.08 159.109 273Z" fill="#263238"/>
<path opacity="0.1" d="M159.109 273C159.109 273 193.899 273.23 201.159 269.64C208.419 266.05 207.529 230.64 207.529 230.64L176.619 240.5C176.619 240.5 175.729 258.08 159.109 273Z" fill="white"/>
<path d="M182.218 213.33C185.668 212.67 191.638 211.33 194.888 211.33C198.138 211.33 200.538 213.18 201.158 214.71C201.778 216.24 183.828 222.29 181.058 220.81C178.288 219.33 177.918 214.15 182.218 213.33Z" fill="#263238"/>
<path opacity="0.1" d="M182.218 213.33C185.668 212.67 191.638 211.33 194.888 211.33C198.138 211.33 200.538 213.18 201.158 214.71C201.778 216.24 183.828 222.29 181.058 220.81C178.288 219.33 177.918 214.15 182.218 213.33Z" fill="white"/>
<path d="M133.169 412.05H134.599L134.999 410.28L139.739 412.42H151.739C151.739 412.42 153.649 410.5 147.929 408.97C147.649 408.894 147.378 408.79 147.119 408.66C144.119 407.23 139.729 402.4 139.729 402.4H133.139C132.937 402.721 132.756 403.055 132.599 403.4C131.889 404.8 130.639 407.85 133.169 412.05Z" fill="#263238"/>
<path d="M132.609 403.35C133.479 402.35 137.439 406.64 140.339 408.09C142.929 409.38 145.839 409.95 147.129 408.64C144.129 407.21 139.279 400.97 139.279 400.97H133.999C133.999 400.97 132.919 402.73 132.609 403.35Z" fill="#FFC2BC"/>
<path d="M138.719 403.94L149.749 380.36L140.209 377.75L133.579 401.01" fill="#FFC2BC"/>
<path d="M142.699 399.11C141.036 398.947 139.392 398.629 137.789 398.16C136.465 397.794 135.223 397.18 134.129 396.35C137.839 376.69 146.309 346.1 158.839 331C174.479 271.12 193.359 261.66 193.359 261.66L209.709 265.94C209.709 265.94 209.709 274.76 203.979 285.84C197.249 298.84 184.169 318.55 174.849 334.93C164.069 353.88 151.999 376.25 142.699 399.11Z" fill="#263238"/>
<path opacity="0.2" d="M189.679 310.291C184.609 318.531 179.299 327.101 174.849 334.931C164.079 353.881 152.049 376.241 142.709 399.101C141.047 398.938 139.403 398.624 137.799 398.161C136.473 397.792 135.228 397.178 134.129 396.351C137.849 376.681 146.309 346.101 158.839 330.991C163.609 312.751 168.669 299.181 173.419 289.141C178.062 296.755 183.513 303.847 189.679 310.291Z" fill="white"/>
<path d="M208.209 401.05H209.649L210.039 399.29L214.779 401.43H226.779C226.779 401.43 228.699 399.5 222.999 398C222.719 397.924 222.448 397.82 222.189 397.69C219.139 396.26 214.799 391.43 214.799 391.43H208.209C208.007 391.751 207.826 392.085 207.669 392.43C206.929 393.8 205.689 396.84 208.209 401.05Z" fill="#263238"/>
<path d="M207.649 392.35C208.519 391.35 212.479 395.64 215.379 397.09C217.969 398.38 220.879 398.95 222.169 397.64C219.119 396.21 214.329 389.96 214.329 389.96H208.999C208.999 389.96 207.999 391.73 207.649 392.35Z" fill="#FFC2BC"/>
<path d="M214.129 392.97L221.109 367.89L211.279 366.9L208.579 390.94" fill="#FFC2BC"/>
<path d="M232.459 310.28C213.739 288.81 179.879 259 179.879 259C177.341 261.321 175.34 264.168 174.017 267.343C172.694 270.518 172.08 273.943 172.22 277.379C172.359 280.816 173.247 284.181 174.822 287.238C176.397 290.296 178.621 292.972 181.339 295.08C193.435 304.305 206.272 312.517 219.719 319.63C211.559 343.63 208.819 369.52 208.529 386.2C209.834 386.855 211.235 387.297 212.679 387.51C214.414 387.864 216.203 387.864 217.939 387.51C222.669 367.96 230.109 342.69 234.819 324.06C236.449 317.88 236.169 313.88 232.459 310.28Z" fill="#263238"/>
<path opacity="0.2" d="M232.459 310.28C213.739 288.81 179.879 259 179.879 259C177.341 261.321 175.34 264.168 174.017 267.343C172.694 270.518 172.08 273.943 172.22 277.379C172.359 280.816 173.247 284.181 174.822 287.238C176.397 290.296 178.621 292.972 181.339 295.08C193.435 304.305 206.272 312.517 219.719 319.63C211.559 343.63 208.819 369.52 208.529 386.2C209.834 386.855 211.235 387.297 212.679 387.51C214.414 387.864 216.203 387.864 217.939 387.51C222.669 367.96 230.109 342.69 234.819 324.06C236.449 317.88 236.169 313.88 232.459 310.28Z" fill="white"/>
<path d="M255.639 198.67L260.639 192.61L264.579 199.07C264.579 199.07 258.949 204 257.089 202.57L255.639 198.67Z" fill="#EEC1BB"/>
<path d="M267.72 192.39L269.3 197.59L264.62 199.07L260.68 192.61L267.72 192.39Z" fill="#EEC1BB"/>
<path d="M252.87 198.72L255.75 205.43L258.42 203.91L255.78 197.61L252.87 198.72Z" fill="#59459C"/>
<path opacity="0.4" d="M252.87 198.72L255.75 205.43L258.42 203.91L255.78 197.61L252.87 198.72Z" fill="white"/>
<path d="M182.149 215.34C182.149 215.34 195.529 220.91 194.009 212.9C194.009 212.9 202.819 212.08 209.779 211.32C209.779 211.32 211.669 229.32 209.129 257.94L210.939 271.78L200.479 275L196.999 264.9L192.819 275.47L170.999 268.63L177.599 255.33C177.599 255.33 176.539 234.6 170.999 223.39C170.999 223.39 171.919 219.39 182.149 215.34Z" fill="#59459C"/>
<path d="M183.249 200.11C184.469 204.63 185.969 212.9 183.039 215.92C183.039 215.92 178.929 219.92 190.859 219.51C191.859 222 195.909 226.51 195.909 226.51C195.909 226.51 196.689 219.51 195.859 217.7C199.199 214.49 192.399 212.08 192.399 212.08C192.399 212.08 191.799 210.94 192.399 207.43L183.249 200.11Z" fill="#EEC1BB"/>
<path opacity="0.2" d="M186.999 203.11L192.419 207.46C192.261 208.281 192.181 209.115 192.179 209.95C190.229 209.68 187.429 207.56 187.079 205.55C186.902 204.749 186.875 203.922 186.999 203.11Z" fill="black"/>
<path d="M179.399 191C180.769 198.3 181.189 201.4 185.349 204.9C191.609 210.16 200.209 207.38 201.029 199.95C201.769 193.25 199.409 182.45 191.889 180.04C190.293 179.468 188.573 179.333 186.907 179.65C185.242 179.967 183.691 180.724 182.417 181.842C181.142 182.961 180.19 184.4 179.66 186.01C179.129 187.621 179.039 189.344 179.399 191Z" fill="#EEC1BB"/>
<path d="M185.669 185.78C181.669 190.97 189.909 196.94 181.669 196.6C173.429 196.26 176.759 184.6 181.669 181.92C186.579 179.24 185.669 185.78 185.669 185.78Z" fill="#263238"/>
<path d="M190.999 192.26C191.089 192.88 191.479 193.35 191.869 193.32C192.259 193.29 192.519 192.77 192.429 192.15C192.339 191.53 191.949 191.06 191.549 191.09C191.149 191.12 190.859 191.64 190.999 192.26Z" fill="#263238"/>
<path d="M198.399 191.82C198.479 192.44 198.879 192.91 199.269 192.89C199.659 192.87 199.919 192.33 199.829 191.72C199.739 191.11 199.349 190.62 198.949 190.65C198.549 190.68 198.309 191.2 198.399 191.82Z" fill="#263238"/>
<path d="M198.78 190.7L200.17 190.16C200.17 190.16 199.59 191.38 198.78 190.7Z" fill="#263238"/>
<path d="M196.47 193C197.212 194.367 198.126 195.634 199.19 196.77C198.906 197.018 198.57 197.2 198.206 197.3C197.843 197.401 197.461 197.418 197.09 197.35L196.47 193Z" fill="#D4827D"/>
<path d="M194 199.87C194.332 199.899 194.667 199.899 195 199.87C195.023 199.867 195.046 199.86 195.066 199.848C195.087 199.837 195.104 199.821 195.118 199.802C195.133 199.784 195.143 199.762 195.148 199.739C195.153 199.716 195.154 199.693 195.15 199.67C195.142 199.622 195.118 199.578 195.081 199.547C195.045 199.516 194.998 199.499 194.95 199.5C194.176 199.56 193.399 199.446 192.675 199.165C191.952 198.885 191.301 198.445 190.77 197.88C190.736 197.847 190.691 197.829 190.645 197.829C190.598 197.829 190.553 197.847 190.52 197.88C190.502 197.896 190.489 197.915 190.479 197.936C190.47 197.958 190.465 197.981 190.465 198.005C190.465 198.028 190.47 198.051 190.479 198.073C190.489 198.094 190.502 198.114 190.52 198.13C191.428 199.116 192.666 199.735 194 199.87Z" fill="#263238"/>
<path d="M188.869 188.94C188.916 188.945 188.964 188.937 189.008 188.918C189.052 188.898 189.09 188.868 189.119 188.83C189.408 188.498 189.775 188.243 190.186 188.086C190.598 187.929 191.042 187.875 191.479 187.93C191.524 187.94 191.571 187.94 191.617 187.931C191.663 187.921 191.706 187.902 191.744 187.875C191.782 187.848 191.813 187.812 191.836 187.772C191.86 187.731 191.874 187.686 191.879 187.64C191.89 187.544 191.865 187.446 191.807 187.368C191.749 187.29 191.664 187.237 191.569 187.22C191.015 187.135 190.45 187.193 189.925 187.387C189.4 187.581 188.934 187.906 188.569 188.33C188.51 188.405 188.482 188.5 188.491 188.595C188.5 188.69 188.546 188.778 188.619 188.84C188.652 188.872 188.691 188.898 188.734 188.915C188.777 188.932 188.822 188.941 188.869 188.94Z" fill="#263238"/>
<path d="M200.069 188.28C200.159 188.284 200.248 188.255 200.319 188.2C200.353 188.166 200.379 188.127 200.398 188.083C200.416 188.039 200.425 187.992 200.425 187.945C200.425 187.897 200.416 187.85 200.398 187.807C200.379 187.763 200.353 187.723 200.319 187.69C199.947 187.237 199.476 186.877 198.941 186.638C198.407 186.399 197.824 186.286 197.239 186.31C197.193 186.314 197.148 186.329 197.107 186.352C197.067 186.375 197.032 186.407 197.004 186.444C196.977 186.482 196.958 186.525 196.948 186.571C196.939 186.617 196.939 186.664 196.949 186.71C196.966 186.806 197.019 186.892 197.097 186.952C197.175 187.011 197.272 187.039 197.369 187.03C197.833 187.016 198.294 187.109 198.716 187.304C199.138 187.498 199.508 187.788 199.799 188.15C199.87 188.226 199.966 188.272 200.069 188.28Z" fill="#263238"/>
<path d="M191.329 191.14L192.719 190.6C192.719 190.6 192.139 191.82 191.329 191.14Z" fill="#263238"/>
<path d="M188.489 181.73C188.489 181.73 187.059 190.33 181.349 191.73C175.639 193.13 180.269 182.89 180.269 182.89C180.269 182.89 181.469 178.23 189.189 178.23C196.909 178.23 205.799 186.07 203.329 197.33C203.535 195.013 203.088 192.685 202.039 190.61C200.329 187.69 198.569 190.24 188.489 181.73Z" fill="#263238"/>
<path d="M178.689 198.08C178.988 198.723 179.418 199.297 179.952 199.763C180.486 200.23 181.112 200.58 181.789 200.79C183.479 201.24 184.219 199.3 183.659 197.36C183.149 195.61 181.659 193.26 179.989 193.69C178.319 194.12 177.829 196.37 178.689 198.08Z" fill="#EEC1BB"/>
<path d="M180.579 215.13C180.579 215.13 182.939 242.42 173.239 260.22C163.539 278.02 158.999 280.7 158.999 280.7L154.999 273C154.999 273 172.939 252.85 173.499 250.22C174.059 247.59 170.219 222.55 170.219 222.55C173.328 219.628 176.812 217.133 180.579 215.13Z" fill="#263238"/>
<path opacity="0.4" d="M173.239 260.22C163.549 278 158.999 280.7 158.999 280.7L154.999 273C154.999 273 172.939 252.85 173.499 250.22C173.554 247.858 173.4 245.495 173.039 243.16C172.629 239.5 172.039 235.04 171.489 231.21C170.809 226.38 170.219 222.55 170.219 222.55C173.318 219.627 176.792 217.128 180.549 215.12C180.549 215.12 182.939 242.42 173.239 260.22Z" fill="white"/>
<path d="M182.219 213.33C182.219 213.33 179.309 213.69 178.649 215.12C177.989 216.55 171.919 224.12 171.919 224.12L178.279 222.56L174.539 225.88C176.502 232.19 177.842 238.678 178.539 245.25C178.539 245.25 184.209 230 180.539 215.13L182.219 213.33Z" fill="#263238"/>
<path opacity="0.25" d="M182.219 213.33C182.219 213.33 179.309 213.69 178.649 215.12C177.989 216.55 171.919 224.12 171.919 224.12L178.279 222.56L174.539 225.88C176.502 232.19 177.842 238.678 178.539 245.25C178.539 245.25 184.209 230 180.539 215.13L182.219 213.33Z" fill="white"/>
<path d="M198.3 211.9C198.3 211.9 208.3 215.56 209.71 250.53C209.71 250.53 211.96 223.83 210.18 210.77L198.3 211.9Z" fill="#263238"/>
<path opacity="0.4" d="M198.3 211.9C198.3 211.9 208.3 215.56 209.71 250.53C209.71 250.53 211.96 223.83 210.18 210.77L198.3 211.9Z" fill="white"/>
<path d="M194.449 211.32L198.009 210.77C199.459 210.54 210.699 216.87 210.699 216.87L205.269 218L209.269 219.44C209.269 219.44 210.659 232.44 208.909 240.56C208.909 240.56 205.679 221.21 198.989 213.38C198.439 212.714 197.745 212.182 196.958 211.825C196.171 211.467 195.313 211.295 194.449 211.32Z" fill="#263238"/>
<path opacity="0.25" d="M194.449 211.32L198.009 210.77C199.459 210.54 210.699 216.87 210.699 216.87L205.269 218L209.269 219.44C209.269 219.44 210.659 232.44 208.909 240.56C208.909 240.56 205.679 221.21 198.989 213.38C198.439 212.714 197.745 212.182 196.958 211.825C196.171 211.467 195.313 211.295 194.449 211.32Z" fill="white"/>
<path d="M192.399 212.12C192.399 212.12 196.329 214.86 195.859 217.74L203.749 217.95C203.749 217.95 198.599 212.6 192.399 212.12Z" fill="#59459C"/>
<path d="M181.468 222.56L190.858 219.51C190.858 219.51 185.858 215.51 184.338 213.33L181.238 215.66C181.158 215.84 180.238 218.12 181.468 222.56Z" fill="#59459C"/>
<path opacity="0.4" d="M192.399 212.12C192.399 212.12 196.329 214.86 195.859 217.74L203.749 217.95C203.749 217.95 198.599 212.6 192.399 212.12Z" fill="white"/>
<path opacity="0.4" d="M181.468 222.56L190.858 219.51C190.858 219.51 185.858 215.51 184.338 213.33L181.238 215.66C181.158 215.84 180.238 218.12 181.468 222.56Z" fill="white"/>
<path d="M135.731 243.53L128.601 240.17L127.761 247.69C127.761 247.69 134.951 249.78 136.031 247.69L135.731 243.53Z" fill="#EEC1BB"/>
<path d="M122.129 242.95L122.899 248.33L127.759 247.69L128.599 240.17L122.129 242.95Z" fill="#EEC1BB"/>
<path d="M133.809 173.57C133.809 173.57 115.859 166.11 99.4794 177.88C89.9594 184.71 83.9094 200.45 62.6094 194.33C62.6094 194.33 82.0094 215.92 94.7194 213.22C107.429 210.52 104.879 203.36 130.619 210.39L133.809 173.57Z" fill="#F5BE30"/>
<path d="M134.972 171.918L132.587 171.766L117.086 414.762L119.471 414.914L134.972 171.918Z" fill="#263238"/>
<path d="M135.4 171.81C135.318 172.124 135.145 172.407 134.902 172.622C134.66 172.838 134.358 172.977 134.037 173.021C133.716 173.065 133.388 173.013 133.096 172.872C132.804 172.73 132.561 172.505 132.397 172.224C132.233 171.944 132.156 171.622 132.176 171.298C132.195 170.974 132.31 170.663 132.507 170.405C132.703 170.146 132.971 169.952 133.278 169.846C133.585 169.74 133.916 169.728 134.23 169.81C134.648 169.923 135.006 170.196 135.225 170.57C135.444 170.945 135.507 171.39 135.4 171.81Z" fill="#263238"/>
<path d="M161.31 197.5C161.277 197.499 161.244 197.491 161.215 197.477C161.185 197.463 161.158 197.444 161.136 197.42C161.113 197.396 161.096 197.367 161.085 197.337C161.073 197.306 161.068 197.273 161.07 197.24C161.076 197.177 161.105 197.119 161.151 197.075C161.197 197.031 161.256 197.004 161.32 197C161.6 197 168.32 197 170.72 188.88C171.4 186.475 172.735 184.306 174.577 182.616C176.419 180.926 178.695 179.781 181.15 179.31C181.216 179.301 181.283 179.318 181.337 179.359C181.39 179.399 181.425 179.459 181.435 179.525C181.444 179.591 181.426 179.659 181.386 179.712C181.346 179.766 181.286 179.801 181.22 179.81C178.865 180.273 176.685 181.378 174.92 183.004C173.155 184.629 171.874 186.712 171.22 189.02C168.67 197.41 161.55 197.5 161.31 197.5Z" fill="#263238"/>
<path d="M201.789 201.11C201.736 201.109 201.684 201.091 201.642 201.058C201.599 201.025 201.569 200.98 201.554 200.928C201.54 200.877 201.542 200.822 201.561 200.772C201.58 200.722 201.614 200.679 201.659 200.65C201.939 200.47 208.389 196.24 203.519 186.41C199.019 177.32 188.139 178.51 188.029 178.52C187.996 178.524 187.963 178.522 187.931 178.513C187.899 178.504 187.869 178.489 187.843 178.469C187.817 178.448 187.795 178.423 187.779 178.394C187.763 178.365 187.753 178.333 187.749 178.3C187.744 178.264 187.746 178.226 187.756 178.191C187.765 178.155 187.783 178.122 187.806 178.094C187.83 178.065 187.859 178.042 187.893 178.026C187.926 178.01 187.962 178.001 187.999 178C188.109 178 199.339 176.76 203.999 186.17C209.079 196.41 201.999 201.01 201.949 201.05C201.929 201.071 201.904 201.088 201.876 201.098C201.848 201.109 201.819 201.113 201.789 201.11Z" fill="#263238"/>
<path opacity="0.2" d="M173.069 243.17C172.659 239.51 172.069 235.05 171.519 231.22C171.87 230.805 172.316 230.479 172.819 230.27C172.819 230.27 175.999 237.71 173.069 243.17Z" fill="black"/>
<path d="M170.249 222.56C170.249 222.56 158.479 240.96 155.839 242.25C153.199 243.54 136.999 243 136.999 243L135.999 249.12C135.999 249.12 154.469 252.3 159.479 250.53C164.489 248.76 172.809 237.48 172.809 237.48C172.809 237.48 173.999 226.8 170.249 222.56Z" fill="#263238"/>
<path opacity="0.4" d="M170.249 222.56C170.249 222.56 158.479 240.96 155.839 242.25C153.199 243.54 136.999 243 136.999 243L135.999 249.12C135.999 249.12 154.469 252.3 159.479 250.53C164.489 248.76 172.809 237.48 172.809 237.48C172.809 237.48 173.999 226.8 170.249 222.56Z" fill="white"/>
<path d="M137.059 249.89L137.999 242.65L134.929 242.59L133.979 249.35L137.059 249.89Z" fill="#59459C"/>
<path opacity="0.4" d="M137.059 249.89L137.999 242.65L134.929 242.59L133.979 249.35L137.059 249.89Z" fill="white"/>
</svg>
